<?xml version="1.0" encoding="UTF-8" standalone="no"?>
<!-- Created with Inkscape (http://www.inkscape.org/) -->
<svg
   xmlns:svg="http://www.w3.org/2000/svg"
   xmlns="http://www.w3.org/2000/svg"
   version="1.0"
   width="1779.9198"
   height="1114.3114"
   id="svg2383">
  <defs
     id="defs2385" />
  <g
     transform="translate(-993.0682,-696.75781)"
     id="layer1">
    <path
       d="M 1219.6875,1701.8125 C 1218.6774,1701.7391 1217.6727,1701.7626 1216.6875,1701.8438 C 1214.3293,1702.0379 1212.1629,1702.8241 1210.0938,1703.2812 C 1209.5501,1703.402 1209.2073,1703.9406 1209.3281,1704.4843 C 1209.4489,1705.028 1209.9875,1705.3708 1210.5312,1705.25 C 1212.7739,1704.7545 1214.8477,1704.0081 1216.8438,1703.8438 C 1218.608,1703.6984 1220.5076,1703.8263 1222.1875,1704.25 C 1223.6099,1704.6089 1225.0944,1705.4286 1226.5312,1706.2812 C 1227.1889,1706.6716 1227.7848,1707.1816 1228.1562,1707.7188 C 1229.1126,1709.1011 1229.8363,1710.828 1230.75,1712.5312 C 1230.8896,1712.8917 1231.2245,1713.1395 1231.6101,1713.1675 C 1231.9957,1713.1956 1232.3629,1712.9989 1232.5532,1712.6624 C 1232.7435,1712.3258 1232.7228,1711.9098 1232.5,1711.5938 C 1231.6564,1710.0211 1230.9421,1708.2266 1229.8125,1706.5938 C 1229.205,1705.7154 1228.3606,1705.0548 1227.5312,1704.5625 C 1226.0843,1703.7039 1224.4923,1702.7678 1222.6875,1702.3125 C 1221.7214,1702.0688 1220.6976,1701.8859 1219.6875,1701.8125 z"
       id="path3189"
       style="fill:#dadada;fill-opacity:1;fill-rule:evenodd;stroke:#ffffff;stroke-width:0.25;stroke-linecap:round;stroke-linejoin:round;stroke-miterlimit:4;stroke-dasharray:none;stroke-opacity:1;display:inline" />
    <path
       d="M 1128.6875,1744.625 C 1124.64,1748.0169 1125.0119,1747.7965 1126.1562,1747.1875 C 1126.5323,1746.9963 1126.9154,1746.8141 1127.2188,1746.6875 C 1127.522,1746.5609 1127.7965,1746.4923 1127.7188,1746.5 C 1127.8392,1746.4881 1128.7738,1746.8611 1129.1562,1747.2188 C 1129.6494,1747.6797 1130.1045,1748.5074 1130.0938,1748.6875 C 1129.9993,1750.2528 1128.9432,1752.2207 1128.375,1754.375 C 1127.981,1755.8687 1126.8236,1757.7731 1127.2188,1759.875 C 1127.5714,1761.7514 1128.8894,1763.669 1130.5625,1764.625 C 1131.5701,1765.2006 1132.6582,1765.2301 1133.6562,1765.25 C 1134.6544,1765.2699 1135.5913,1765.2615 1136.2812,1765.4375 C 1137.6987,1765.7989 1139.1314,1766.5734 1140.7188,1767.2188 C 1140.8637,1767.3737 1141.7435,1768.3262 1142.8125,1769.5 C 1143.3891,1770.1331 1143.9781,1770.7833 1144.4375,1771.3125 C 1144.6672,1771.5771 1144.8872,1771.7901 1145.0312,1771.9688 C 1145.1753,1772.1473 1145.259,1772.3242 1145.2188,1772.25 C 1145.3026,1772.4662 1145.4631,1772.638 1145.6562,1772.75 C 1144.5179,1770.7821 1143.5196,1768.7174 1142.8438,1766.5312 C 1142.6128,1766.2784 1142.0312,1765.6562 1142.0312,1765.6562 C 1141.9237,1765.5567 1141.7957,1765.4821 1141.6562,1765.4375 C 1140.1475,1764.839 1138.5898,1763.9611 1136.7812,1763.5 C 1135.7011,1763.2245 1134.6181,1763.2686 1133.6875,1763.25 C 1132.7569,1763.2314 1131.9887,1763.1363 1131.5312,1762.875 C 1130.5801,1762.3315 1129.3915,1760.6166 1129.1875,1759.5312 C 1128.997,1758.5179 1129.8223,1756.7335 1130.3125,1754.875 C 1130.7866,1753.0772 1131.9577,1751.0656 1132.0938,1748.8125 C 1132.1801,1747.3807 1131.202,1746.4062 1130.5,1745.75 C 1130.0082,1745.2903 1129.4163,1744.8315 1128.6875,1744.625 z"
       id="path3193"
       style="fill:#e7e7e7;fill-opacity:0.64117647;fill-rule:evenodd;stroke:#000000;stroke-width:0.75;stroke-linecap:round;stroke-linejoin:round;stroke-miterlimit:4;stroke-dasharray:2.25, 2.25;stroke-dashoffset:0;stroke-opacity:0.64117647;display:inline" />
    <path
       d="M 1362.9375,1649.0625 C 1360.9888,1649.0618 1358.9313,1649.2794 1357.0312,1649.875 C 1355.7946,1650.2626 1354.6275,1651.0461 1353.8438,1652.0625 C 1353.3467,1652.7071 1353.2559,1653.4031 1353.1562,1653.9375 C 1353.0712,1654.3932 1352.9549,1654.6434 1352.875,1654.8125 C 1352.827,1654.8421 1352.8081,1654.8838 1352.7188,1654.9062 C 1352.4438,1654.9754 1352.0135,1655.0571 1351.5625,1655.0938 C 1350.6606,1655.167 1349.5687,1655.1126 1349,1655 C 1348.4563,1654.8964 1347.9317,1655.2532 1347.8281,1655.7969 C 1347.7245,1656.3406 1348.0813,1656.8652 1348.625,1656.9688 C 1349.5284,1657.1476 1350.6611,1657.1796 1351.7188,1657.0938 C 1352.2476,1657.0508 1352.7466,1656.986 1353.1875,1656.875 C 1353.6284,1656.764 1354.036,1656.7313 1354.4688,1656.125 C 1354.9333,1655.4742 1355.0274,1654.8044 1355.125,1654.2812 C 1355.2226,1653.7581 1355.3478,1653.3975 1355.4375,1653.2812 C 1355.9151,1652.6619 1356.837,1652.0282 1357.625,1651.7812 C 1359.2466,1651.2729 1361.1326,1651.0618 1362.9375,1651.0625 C 1363.6822,1651.0628 1366.4293,1651.3307 1369.0312,1651.6562 C 1370.3322,1651.819 1371.6299,1651.9885 1372.6875,1652.1562 C 1373.7451,1652.324 1374.5985,1652.5161 1374.8438,1652.5938 C 1375.3789,1652.7664 1375.9525,1652.4726 1376.1251,1651.9375 C 1376.2977,1651.4024 1376.0039,1650.8288 1375.4688,1650.6562 C 1374.9146,1650.4808 1374.0896,1650.3603 1373,1650.1875 C 1371.9104,1650.0147 1370.599,1649.8211 1369.2812,1649.6562 C 1366.6458,1649.3265 1364.0588,1649.0629 1362.9375,1649.0625 z"
       id="path3195"
       style="fill:#dadada;fill-opacity:1;fill-rule:evenodd;stroke:#ffffff;stroke-width:0.25;stroke-linecap:round;stroke-linejoin:round;stroke-miterlimit:4;stroke-dasharray:none;stroke-opacity:1;display:inline" />
    <path
       d="M 1150.7812,1724.875 C 1150.5975,1724.9002 1150.4244,1724.9759 1150.2812,1725.0938 C 1139.5789,1733.4211 1128.8969,1741.8236 1118.0625,1750.6562 C 1115.6053,1752.6595 1113.7543,1755.5405 1112.375,1758.1562 C 1110.9467,1760.865 1110.3805,1763.6485 1109.4062,1766.3125 C 1108.45,1768.9274 1107.4919,1771.5426 1106.0938,1773.75 C 1104.7691,1775.8414 1103.0731,1777.8801 1101.1875,1779.3438 C 1099.1723,1780.908 1096.8558,1782.3395 1094.5,1782.8125 C 1075.8524,1786.5563 1056.4035,1788.8765 1038.125,1792.1562 C 1036.2627,1792.4904 1034.5158,1793.588 1033.0938,1795 C 1031.6717,1796.412 1030.567,1798.1306 1030.0938,1799.875 C 1029.7642,1801.0897 1029.8807,1802.4391 1030.2188,1803.75 C 1030.5568,1805.0609 1031.1246,1806.3139 1031.8438,1807.2812 C 1033.1542,1809.044 1035.4634,1810.7194 1037.8438,1810.8125 C 1041.0947,1810.9397 1044.338,1809.2334 1047.1562,1808.1875 C 1054.3482,1805.5184 1061.0963,1801.9034 1068.1875,1799.625 C 1076.2467,1797.0355 1084.7585,1794.8399 1093.0625,1794.0625 C 1103.7236,1793.0642 1114.2037,1793.7986 1125.0312,1794.7188 C 1131.1722,1795.2408 1137.6641,1797.3013 1144.0312,1797.875 C 1146.1549,1798.0663 1148.8173,1797.8213 1150.5625,1796.2188 C 1153.3909,1793.6215 1155.6924,1789.791 1154.9062,1785.625 C 1154.3088,1782.459 1152.1744,1779.3196 1150,1775.9688 C 1147.8256,1772.6179 1145.5821,1769.1017 1144.5625,1765.4375 C 1144.0213,1763.4924 1143.6973,1761.276 1144.0312,1759.3125 C 1144.4417,1756.9002 1146.0378,1753.7184 1147.9375,1752.1562 C 1156.9945,1744.7084 1159.8241,1742.4529 1164.3438,1738.7812 C 1164.6837,1738.5816 1164.8747,1738.201 1164.8315,1737.8092 C 1164.7883,1737.4174 1164.519,1737.0875 1164.1437,1736.9668 C 1163.7685,1736.846 1163.3574,1736.9569 1163.0938,1737.25 C 1158.5828,1740.9145 1155.7195,1743.1408 1146.6562,1750.5938 C 1144.2018,1752.6121 1142.5286,1756.0453 1142.0312,1758.9688 C 1141.6196,1761.3894 1142.0718,1763.8682 1142.6562,1765.9688 C 1143.788,1770.0361 1146.1646,1773.7043 1148.3438,1777.0625 C 1150.5229,1780.4207 1152.4625,1783.4829 1152.9375,1786 C 1153.5478,1789.2342 1151.7206,1792.4526 1149.2188,1794.75 C 1148.2511,1795.6385 1145.9516,1796.0339 1144.1875,1795.875 C 1138.1294,1795.3291 1131.6407,1793.2986 1125.1875,1792.75 C 1114.3419,1791.8283 1103.7481,1791.0444 1092.875,1792.0625 C 1084.3499,1792.8606 1075.7291,1795.1048 1067.5938,1797.7188 C 1060.2716,1800.0714 1053.458,1803.707 1046.4375,1806.3125 C 1043.4604,1807.4174 1040.3531,1808.9083 1037.9062,1808.8125 C 1036.5533,1808.7596 1034.3769,1807.3574 1033.4375,1806.0938 C 1032.9303,1805.4114 1032.4355,1804.3331 1032.1562,1803.25 C 1031.877,1802.1669 1031.8475,1801.0836 1032.0312,1800.4062 C 1032.3788,1799.1253 1033.2944,1797.6033 1034.5,1796.4062 C 1035.7056,1795.2092 1037.1784,1794.3565 1038.4688,1794.125 C 1056.6644,1790.8601 1076.1198,1788.5467 1094.875,1784.7812 C 1097.7321,1784.2076 1100.3049,1782.5929 1102.4375,1780.9375 C 1104.5746,1779.2786 1106.3631,1777.0517 1107.7812,1774.8125 C 1109.3368,1772.3566 1110.3561,1769.6153 1111.3125,1767 C 1112.3525,1764.1561 1112.898,1761.4488 1114.1562,1759.0625 C 1115.4708,1756.5694 1117.2105,1753.9011 1119.3125,1752.1875 C 1130.1284,1743.3699 1140.8023,1735.0113 1151.5,1726.6875 C 1151.8843,1726.4232 1152.0349,1725.9283 1151.8629,1725.4948 C 1151.691,1725.0612 1151.2422,1724.8041 1150.7812,1724.875 L 1150.7812,1724.875 z"
       id="path3955"
       style="fill:#dadada;fill-opacity:1;fill-rule:evenodd;stroke:#ffffff;stroke-width:0.25;stroke-linecap:round;stroke-linejoin:round;stroke-miterlimit:4;stroke-dasharray:none;stroke-opacity:1;display:inline" />
    <path
       d="M 262.65625,928.15625 C 261.84525,928.17006 261.03295,928.24965 260.21875,928.46875 C 235.45364,935.13284 210.22625,942.6625 185.34375,948.875 C 183.18395,949.4143 181.3171,950.724 179.75,952 C 178.41641,953.0859 177.16265,954.61525 176.34375,956.09375 C 175.47725,957.65784 175.00495,959.5039 174.90625,961.25 C 174.79935,963.1404 175.03975,965.2359 175.90625,967.0625 C 180.41925,976.5777 186.70265,985.0928 191.59375,994.25 C 193.00895,996.8994 192.7528,1000.6443 189.5625,1003.1562 C 186.02601,1005.9412 158.7953,1027.1594 157.375,1028.2812 C 155.87501,1029.4663 154.36425,1031.2324 153.78125,1033 C 153.20905,1034.7349 153.7547,1036.1811 154.0625,1037.5938 C 154.38751,1039.085 155.0586,1040.5862 156,1041.8125 C 156.92961,1043.0234 158.20075,1044.1939 159.65625,1044.8438 C 160.27515,1045.12 161.1341,1045.3965 162,1045.5938 C 162.86591,1045.7909 163.61395,1045.9643 164.46875,1045.75 C 165.08265,1045.5961 165.79175,1045.256 166.71875,1044.8125 C 167.64595,1044.369 168.69265,1043.8489 169.59375,1043.375 C 169.85145,1043.2395 170.057,1043.0805 170.4375,1042.8125 C 170.81801,1042.5445 171.30585,1042.1902 171.90625,1041.75 C 173.10665,1040.8696 174.7289,1039.6754 176.625,1038.25 C 180.41731,1035.3991 185.31965,1031.6523 190.28125,1027.875 C 200.20415,1020.3204 210.372,1012.5648 211.875,1011.4688 C 214.82711,1009.3155 218.7993,1008.3204 222.3125,1006.1562 C 224.82831,1004.6067 227.5389,1002.879 229.5625,1000.5 C 232.65611,996.8633 235.74475,992.5766 237.53125,988.25 C 237.92925,987.286 237.89765,986.24775 237.65625,985.28125 C 237.41465,984.31496 236.9679,983.41885 236.375,982.71875 C 235.37811,981.54124 233.9483,980.92945 232.75,980.34375 C 231.55171,979.75784 230.66395,979.16165 230.40625,978.65625 C 230.18735,978.22746 230.00155,977.51315 230.03125,976.78125 C 230.06075,976.04946 230.289,975.3265 230.625,974.875 C 230.83251,974.5962 231.7118,973.90165 232.625,973.46875 C 233.53821,973.03564 234.56685,972.8997 234.71875,972.9375 C 239.91765,974.2285 245.33345,976.8972 250.40625,979.8125 C 252.92525,981.2601 255.68055,983.2765 256.84375,985.375 C 257.24794,986.1042 257.556,987.25425 257.625,988.34375 C 257.69401,989.43304 257.49475,990.46225 257.09375,991.03125 C 253.62714,995.95326 247.35025,999.93845 242.46875,1004.8438 C 240.90065,1006.4195 238.90545,1008.1174 237.90625,1010.375 C 237.14445,1012.0957 237.2947,1014.1886 237.8125,1015.8125 C 238.27291,1017.2566 239.4046,1018.5501 240.8125,1019.1875 C 242.85481,1020.1119 245.477,1021.0606 248.0625,1020.625 C 266.78981,1017.4693 285.25855,1011.8094 303.96875,1008.7188 C 340.99484,1002.6021 371.61675,996.65995 407.53125,989.28125 C 407.55185,989.27706 407.57315,989.28555 407.59375,989.28125 C 407.68864,989.26446 407.7802,989.23565 407.875,989.21875 C 414.14501,988.09674 420.32845,986.65345 426.53125,985.90625 C 431.03875,985.36346 435.70695,985.515 440.40625,985.3125 C 440.95855,985.2866 441.4009,984.8023 441.375,984.25 C 441.34911,983.6977 440.8648,983.2866 440.3125,983.3125 C 435.71531,983.5106 430.99215,983.3701 426.28125,983.9375 C 422.98595,984.3344 419.7368,984.90825 416.5,985.53125 C 417.36961,984.97096 418.1334,984.38245 418.6875,983.71875 C 419.61271,982.61014 420.25745,980.87175 420.71875,979.03125 C 421.18024,977.19096 421.42295,975.3435 421.15625,973.9375 C 420.75885,971.8444 419.4964,969.5708 417.5,968.375 C 417.58031,968.3758 417.6743,968.3759 417.75,968.375 C 419.47561,968.3545 421.05485,967.4551 422.28125,966.625 C 423.86515,965.5527 425.19785,964.11925 426.34375,962.71875 C 427.09814,961.79674 427.76345,960.69315 428.09375,959.46875 C 428.55234,957.76954 428.44435,956.0832 428.59375,954.625 C 428.63354,954.3218 428.5257,954.0318 428.3125,953.8125 C 428.09931,953.5933 427.8042,953.4688 427.5,953.5 C 427.03081,953.5574 426.6659,953.93545 426.625,954.40625 C 426.45401,956.07366 426.50085,957.6599 426.15625,958.9375 C 425.92745,959.7854 425.39675,960.6851 424.78125,961.4375 C 423.69085,962.77 422.47235,964.07765 421.15625,964.96875 C 420.07345,965.70164 418.7419,966.3867 417.75,966.375 C 415.70181,966.3508 413.5638,966.30255 411.6875,965.53125 C 402.43191,961.72666 392.88995,957.7634 383.40625,954.3125 C 381.63615,953.6684 379.6194,953.35235 377.75,953.59375 C 375.93101,953.82854 374.29795,954.7596 372.90625,955.625 C 370.65425,957.0254 369.1085,959.1422 367.375,959.9375 C 366.02911,960.5551 364.2163,960.9045 362.9375,960.5 C 334.17751,951.4046 305.6307,940.60335 276.8125,931.03125 C 273.49621,929.92976 270.04095,929.0477 266.59375,928.5 C 265.60584,928.343 264.54505,928.19685 263.46875,928.15625 C 263.19974,928.14616 262.92655,928.15175 262.65625,928.15625 z M 263.40625,930.15625 C 264.34465,930.19156 265.31925,930.31575 266.28125,930.46875 C 269.60255,930.99644 272.92885,931.8655 276.15625,932.9375 C 304.92295,942.4924 333.51355,953.28875 362.34375,962.40625 C 364.35104,963.04126 366.53165,962.55565 368.21875,961.78125 C 370.65514,960.66346 372.20995,958.43735 373.96875,957.34375 C 375.29434,956.51954 376.76165,955.7264 378.03125,955.5625 C 379.49635,955.3734 381.23575,955.6237 382.71875,956.1875 C 388.51503,958.39117 393.09864,959.9117 398.78155,962.51711 C 403.77629,964.80701 410.57624,968.39678 414.53125,971.09375 C 415.52605,971.77214 416.48565,973.37215 416.84375,974.59375 C 417.26774,976.03924 417.2657,977.82375 416.875,979.15625 C 416.48531,980.48546 415.1652,981.97895 413.875,982.78125 C 411.62891,984.17786 408.83045,985.0863 406.15625,985.75 C 399.39345,987.4282 392.4645,988.65985 385.5625,989.78125 C 381.98471,990.36266 378.2622,990.218 374.625,990.875 C 371.56871,991.4271 368.73935,992.77815 365.78125,993.34375 C 342.98275,997.70204 319.82055,1000.7854 297.15625,1005.6875 C 294.40605,1006.2824 288.03505,1008.19 281.65625,1010.1562 C 275.52416,1012.0466 269.70448,1014.008 266.875,1014.7188 C 260.51478,1016.3165 254.11214,1017.579 247.71875,1018.6562 C 245.86215,1018.9691 243.5273,1018.2361 241.625,1017.375 C 240.88911,1017.0418 239.95805,1015.9688 239.71875,1015.2188 C 239.34255,1014.0386 239.3052,1012.1923 239.75,1011.1875 C 240.48781,1009.5207 242.2446,1007.8884 243.875,1006.25 C 248.52181,1001.5805 254.90145,997.6074 258.71875,992.1875 C 259.52054,991.0493 259.7127,989.60165 259.625,988.21875 C 259.53731,986.83564 259.18435,985.47185 258.59375,984.40625 C 257.07474,981.66606 254.05655,979.61675 251.40625,978.09375 C 246.26385,975.13834 240.73145,972.33745 235.21875,970.96875 C 234.03245,970.67404 232.89925,971.12615 231.78125,971.65625 C 230.66305,972.18656 229.6269,972.8451 229,973.6875 C 228.33931,974.5753 228.07305,975.6475 228.03125,976.6875 C 227.98925,977.7275 228.16465,978.7214 228.59375,979.5625 C 229.28325,980.9135 230.6459,981.524 231.875,982.125 C 233.10411,982.726 234.27545,983.3287 234.84375,984 C 235.18095,984.3982 235.54875,985.0694 235.71875,985.75 C 235.88895,986.4306 235.8443,987.08895 235.6875,987.46875 C 234.03731,991.46564 231.04695,995.67325 228.03125,999.21875 C 226.27525,1001.283 223.7445,1002.9009 221.25,1004.4375 C 218.10301,1006.3759 214.0694,1007.3769 210.6875,1009.8438 C 209.02351,1011.0573 199.01405,1018.7288 189.09375,1026.2812 C 184.13365,1030.0575 179.19175,1033.8106 175.40625,1036.6562 C 173.51335,1038.0792 171.90745,1039.2533 170.71875,1040.125 C 170.12455,1040.5609 169.64325,1040.9324 169.28125,1041.1875 C 168.91905,1041.4426 168.62155,1041.6119 168.65625,1041.5938 C 167.77255,1042.0584 166.73625,1042.6046 165.84375,1043.0312 C 164.95145,1043.4581 164.11815,1043.7751 163.96875,1043.8125 C 164.04445,1043.7935 163.22095,1043.7962 162.46875,1043.625 C 161.71675,1043.4538 160.87095,1043.1795 160.46875,1043 C 159.44435,1042.5427 158.34565,1041.5729 157.59375,1040.5938 C 156.86705,1039.647 156.29245,1038.3556 156.03125,1037.1562 C 155.68985,1035.5899 155.3395,1034.6804 155.6875,1033.625 C 156.04981,1032.527 157.39325,1030.7922 158.59375,1029.8438 C 159.87415,1028.8322 187.20425,1007.5352 190.78125,1004.7188 C 194.70425,1001.6294 195.18965,996.73695 193.34375,993.28125 C 188.36105,983.95276 182.12085,975.49955 177.71875,966.21875 C 177.05295,964.81494 176.81365,963.0107 176.90625,961.375 C 176.98905,959.9087 177.41615,958.2859 178.09375,957.0625 C 178.76005,955.8596 179.93335,954.4563 181.03125,953.5625 C 182.50845,952.3597 184.17975,951.228 185.84375,950.8125 C 210.78625,944.585 236.0206,937.06085 260.75,930.40625 C 261.57881,930.18326 262.46765,930.12115 263.40625,930.15625 z M 405.09375,964.84375 C 408.87096,966.4271 412.61312,968.10379 416.25,969.9375 C 417.63381,970.6352 418.8796,972.6906 419.1875,974.3125 C 419.32991,975.0627 419.1696,976.85815 418.75,978.53125 C 418.33041,980.20456 417.63135,981.868 417.15625,982.4375 C 416.46085,983.2705 414.5872,984.452 412.625,985.375 C 410.66281,986.298 408.55375,987.027 407.46875,987.25 C 407.39234,987.2657 407.3264,987.2968 407.25,987.3125 C 371.29441,994.7005 340.6631,1000.6315 303.625,1006.75 C 293.9059,1008.3556 284.28332,1010.6158 274.71875,1012.875 C 276.98019,1012.1662 279.32632,1011.4539 281.8125,1010.6875 C 288.18841,1008.7221 294.60135,1006.7983 297.28125,1006.2188 C 319.91485,1001.3232 343.0548,998.26885 365.875,993.90625 C 368.93321,993.32166 371.76695,991.9707 374.71875,991.4375 C 378.27214,990.7957 382.00125,990.93755 385.65625,990.34375 C 392.56415,989.22134 399.5249,987.96575 406.3125,986.28125 C 409.01531,985.61056 411.82535,984.6993 414.15625,983.25 C 415.56055,982.3767 416.9841,980.8587 417.4375,979.3125 C 417.86641,977.8498 417.8341,976.0028 417.375,974.4375 C 416.97981,973.0895 416.02985,971.4338 414.84375,970.625 C 412.08487,968.74368 408.58638,966.75431 405.09375,964.84375 z"
       transform="translate(993.0682,696.75781)"
       id="path3199"
       style="fill:#bababa;fill-opacity:1;fill-rule:evenodd;stroke:#ffffff;stroke-width:0.25;stroke-linecap:round;stroke-linejoin:round;stroke-miterlimit:4;stroke-dasharray:none;stroke-opacity:1;display:inline" />
    <path
       d="M 1726,1637.3438 C 1724.9011,1637.298 1724.0867,1637.9922 1723.375,1638.5625 C 1722.6633,1639.1328 1722.0212,1639.6035 1721.5312,1639.625 C 1713.8934,1639.9598 1706.0568,1640.5679 1698.375,1640.5312 C 1696.7753,1640.5236 1693.7446,1641.1458 1690.6562,1641.75 C 1687.5679,1642.3542 1684.4094,1642.9375 1683.1875,1642.9375 L 1683.1875,1644.2188 C 1684.7774,1644.2188 1687.8185,1643.6041 1690.9062,1643 C 1693.994,1642.3959 1697.1482,1641.8066 1698.375,1641.8125 C 1706.1286,1641.8495 1713.9856,1641.2398 1721.5938,1640.9062 C 1722.6803,1640.8586 1723.485,1640.1254 1724.1875,1639.5625 C 1724.89,1638.9996 1725.4675,1638.6054 1725.9375,1638.625 C 1731.1525,1638.8422 1736.422,1639.0819 1741.7188,1639.375 C 1741.6939,1639.3736 1741.8513,1639.4218 1742.0625,1639.5625 C 1742.2737,1639.7032 1742.5443,1639.9367 1742.8125,1640.1562 C 1743.0807,1640.3758 1743.3373,1640.5862 1743.625,1640.7812 C 1743.9127,1640.9763 1744.2148,1641.1528 1744.625,1641.1875 C 1752.2505,1641.8325 1759.4503,1641.2928 1766.875,1642.4062 C 1767.9972,1642.5746 1769.1729,1643.2253 1770.4062,1643.9375 C 1771.6396,1644.6497 1772.9166,1645.4125 1774.3438,1645.7188 C 1779.307,1646.7837 1785.7449,1648.1154 1790.8125,1648.625 L 1790.9375,1647.3438 C 1785.9803,1646.8452 1779.5447,1645.531 1774.5938,1644.4688 C 1773.4595,1644.2254 1772.2741,1643.5301 1771.0312,1642.8125 C 1769.7884,1642.0949 1768.5115,1641.3423 1767.0625,1641.125 C 1759.4579,1639.9846 1752.214,1640.5715 1744.7188,1639.9375 C 1744.7372,1639.9391 1744.5571,1639.8634 1744.3438,1639.7188 C 1744.1304,1639.5741 1743.8943,1639.3767 1743.625,1639.1562 C 1743.3557,1638.9358 1743.0713,1638.6933 1742.7812,1638.5 C 1742.4912,1638.3067 1742.1982,1638.1167 1741.7812,1638.0938 C 1736.4773,1637.8003 1731.2194,1637.5611 1726,1637.3438 z"
       id="path4010"
       style="fill:#939393;fill-opacity:1;fill-rule:evenodd;stroke:#ffffff;stroke-width:0.25;stroke-linecap:butt;stroke-linejoin:miter;stroke-miterlimit:4;stroke-dasharray:none;stroke-opacity:1" />
    <path
       d="M 798.5625,23.46875 C 797.85803,23.449886 797.15755,23.47093 796.4375,23.5 C 794.99738,23.558141 793.55425,23.7365 792.15625,24.1875 C 783.43168,27.001881 774.89175,30.84132 766.53125,34.5625 C 764.37398,35.522679 762.3006,36.77244 760.5,38.3125 C 757.52478,40.857139 755.1704,43.9583 752.5,46.5 C 750.19218,48.696519 748.0807,51.0853 745.625,52.5 C 742.78708,54.134869 739.55675,55.62092 736.46875,55.8125 C 723.36694,56.625389 709.89045,56.06731 696.59375,55.46875 C 691.26694,55.228959 685.88095,53.85409 680.34375,53.28125 C 678.83374,53.125039 677.0319,52.79552 675.25,53.34375 C 672.69818,54.128899 669.92165,55.35814 667.84375,57.15625 C 666.30684,58.486319 665.6938,60.50478 665.1875,62.125 C 664.51598,64.273859 663.10795,66.98196 663.90625,69.75 C 667.91548,83.652243 673.27915,97.89382 679.15625,111.15625 C 680.30268,113.74335 682.91265,115.06792 684.71875,116.4375 C 688.45844,119.27305 692.89725,121.0931 695.84375,123.96875 C 697.49874,125.58379 698.6597,128.17937 699.375,130.59375 C 700.03548,132.82285 700.2103,135.42329 699.875,137.75 C 699.28638,141.8333 697.8677,145.9595 696.5,150.0625 C 693.94798,157.71852 691.2012,165.34379 688.1875,172.8125 C 687.02878,175.68413 686.03155,178.6858 684.21875,180.65625 C 680.74004,184.4376 676.57875,188.13251 672.03125,190.40625 C 661.85038,195.49663 650.74495,199.60046 639.78125,202.8125 C 635.56918,204.04651 630.8129,203.81745 626.125,203.84375 C 620.16638,203.87722 614.037,202.75411 607.8125,202.96875 C 601.57728,203.18376 595.29755,204.00501 589.21875,205.15625 C 587.20264,205.53809 584.88725,206.20821 583.28125,207.75 C 581.45228,209.5058 579.9539,212.08477 579.375,214.59375 C 579.03348,216.0738 579.30795,217.536 579.53125,218.875 C 579.75448,220.214 579.91515,221.43775 579.71875,222.40625 C 579.34824,224.23435 578.29365,226.44435 577.03125,227.40625 C 575.06728,228.9026 571.9493,229.78592 569.125,230.3125 C 565.16108,231.05154 560.46995,230.05447 556.03125,231.21875 C 552.69338,232.09425 548.84625,233.59218 546.46875,236.4375 C 540.73344,243.30182 538.2135,252.92127 532.5625,259 C 527.46808,264.4799 520.1182,268.31501 513.25,272.21875 C 505.98528,276.34781 498.47095,280.48283 490.65625,282.8125 C 482.83185,285.14505 474.1039,284.95535 465.625,286.40625 C 451.35741,288.84775 437.315,292.43556 423.125,294.34375 C 412.81041,295.7308 402.25895,295.7259 391.71875,296.34375 C 384.82624,296.74779 377.9087,297.0814 371,297.4375 C 371.00001,297.4375 370.9377,297.43754 370.9375,297.4375 C 370.87821,297.42396 361.6364,295.30685 352.4375,293.1875 C 347.82331,292.12442 343.23425,291.078 339.84375,290.28125 C 338.14854,289.88288 336.7564,289.54356 335.8125,289.3125 C 335.34061,289.19697 334.99985,289.1209 334.78125,289.0625 C 334.76185,289.05003 334.73795,289.07442 334.71875,289.0625 C 334.71194,289.05824 334.72525,289.03517 334.71875,289.03125 C 334.69424,289.01634 334.66815,289.00536 334.65625,289 C 334.47075,288.91657 334.4712,288.94485 334.4375,288.9375 C 334.40381,288.93015 334.36955,288.9107 334.34375,288.90625 C 334.24094,288.88844 334.14215,288.86669 333.96875,288.84375 C 333.62214,288.79787 333.0843,288.73284 332.4375,288.65625 C 331.14401,288.50307 329.34185,288.3287 327.53125,288.125 C 323.90985,287.7176 320.21875,287.28125 320.21875,287.28125 L 319.8125,287.34375 C 319.81251,287.34375 323.6948,289.68676 327.3125,290.09375 C 329.12141,290.29724 330.9021,290.50403 332.1875,290.65625 C 332.83021,290.73236 333.3611,290.80055 333.6875,290.84375 C 333.76991,290.85466 333.78835,290.86699 333.84375,290.875 C 333.86054,290.8786 333.92,290.90055 333.9375,290.90625 C 334.02841,290.93591 334.1261,290.93565 334.25,290.96875 C 334.49791,291.03495 334.86565,291.13294 335.34375,291.25 C 336.30014,291.48411 337.70805,291.8197 339.40625,292.21875 C 342.80245,293.01686 347.3844,294.09285 352,295.15625 C 361.23121,297.28304 370.5625,299.40625 370.5625,299.40625 C 370.65431,299.42994 370.74905,299.44046 370.84375,299.4375 C 377.83704,299.07578 384.83965,298.75434 391.84375,298.34375 C 402.30254,297.73067 412.91105,297.75508 423.40625,296.34375 C 437.75295,294.41449 451.80975,290.79792 465.96875,288.375 C 474.18694,286.96872 482.98235,287.17412 491.21875,284.71875 C 499.31594,282.30491 506.9693,278.10691 514.25,273.96875 C 521.06888,270.09308 528.60395,266.21294 534.03125,260.375 C 540.17898,253.76195 542.6883,244.07599 548,237.71875 C 549.89838,235.4467 553.38505,233.98147 556.53125,233.15625 C 560.32788,232.16042 564.9871,233.0914 569.5,232.25 C 572.43578,231.70262 575.7972,230.86883 578.25,229 C 580.17158,227.53586 581.242,224.97931 581.6875,222.78125 C 581.98798,221.29871 581.7221,219.86302 581.5,218.53125 C 581.27788,217.19948 581.0933,215.98109 581.3125,215.03125 C 581.78368,212.98926 583.15415,210.6294 584.65625,209.1875 C 585.75188,208.13573 587.76415,207.44027 589.59375,207.09375 C 595.59534,205.95712 601.80035,205.14805 607.90625,204.9375 C 613.83298,204.73313 619.93855,205.87868 626.15625,205.84375 C 630.76778,205.81787 635.69025,206.08208 640.34375,204.71875 C 651.40114,201.47926 662.59225,197.34448 672.90625,192.1875 C 677.78548,189.74791 682.1087,185.89009 685.6875,182 C 687.91678,179.57672 688.91175,176.33681 690.03125,173.5625 C 693.06428,166.04583 695.8132,158.37294 698.375,150.6875 C 699.73588,146.60493 701.2482,142.37953 701.875,138.03125 C 702.25458,135.39727 702.03195,132.53356 701.28125,130 C 700.51218,127.4043 699.3169,124.54831 697.25,122.53125 C 693.90448,119.26628 689.34675,117.45252 685.90625,114.84375 C 683.91348,113.33271 681.73395,112.07027 680.96875,110.34375 C 675.12384,97.153723 669.7908,83.01375 665.8125,69.21875 C 665.30818,67.470143 666.35515,65.08245 667.09375,62.71875 C 667.59034,61.129849 668.2069,59.45078 669.125,58.65625 C 670.86598,57.149649 673.47315,55.97941 675.84375,55.25 C 676.98194,54.899809 678.55065,55.11516 680.15625,55.28125 C 685.49898,55.833979 690.9005,57.21668 696.5,57.46875 C 709.79948,58.067429 723.34905,58.63425 736.59375,57.8125 C 740.21764,57.587659 743.6785,55.94743 746.625,54.25 C 749.48488,52.602459 751.6646,50.04138 753.875,47.9375 C 756.70058,45.248109 759.02405,42.20185 761.78125,39.84375 C 763.41758,38.444229 765.35165,37.26166 767.34375,36.375 C 775.70654,32.652829 784.1662,28.86273 792.75,26.09375 C 795.08668,25.339981 797.85825,25.40781 800.53125,25.59375 C 804.82508,25.892461 809.37705,25.91214 812.84375,27.5 C 816.73634,29.282871 820.2139,32.9063 823.625,36.1875 C 826.59628,39.045539 829.7666,41.88132 831.375,45.3125 C 838.67758,60.891389 845.2827,77.34676 850.5,93.6875 C 851.55148,96.980823 850.76275,100.93654 850.46875,104.875 C 850.32154,106.84735 849.67325,109.0223 849.15625,111.21875 C 848.63918,113.4152 848.21915,115.64827 848.65625,117.8125 C 848.96278,119.3304 849.88645,120.79246 851.03125,122.03125 C 852.17598,123.27004 853.55715,124.31 854.96875,124.75 C 856.46564,125.21652 858.05355,124.9149 859.59375,124.46875 C 861.13404,124.0226 862.6546,123.3797 863.9375,122.90625 C 866.69438,121.8889 868.6905,119.73728 870.75,119.125 C 872.70738,118.54302 875.05635,118.14357 876.53125,118.875 C 896.70988,128.8818 916.8091,140.37417 936.375,151.96875 C 939.45348,153.79308 942.12045,156.4807 944.65625,159.21875 C 951.87308,167.01122 958.15395,176.04834 965.65625,183.65625 C 967.14628,185.16719 969.3114,185.38726 970.9375,185.59375 C 973.11758,185.87058 975.7398,186.23615 978.125,185.34375 C 984.99898,182.77184 991.96295,179.39346 998.21875,175.5 C 1000.859,173.85677 1002.8158,171.30187 1004.4688,168.875 C 1008.5945,162.81794 1011.4578,155.88027 1015.5,150.25 C 1016.2408,149.21827 1017.7576,148.31281 1019,148.125 C 1022.5052,147.59516 1026.4463,147.68746 1030.0938,148.28125 C 1041.9226,150.2069 1053.9211,152.10996 1065.25,155.6875 C 1082.4025,161.10406 1099.0002,168.60482 1115.8438,175.375 C 1129.9376,181.03983 1143.4512,190.73795 1158.5938,193.1875 C 1176.8641,196.143 1196.2197,191.52004 1214.6875,191.375 C 1219.1105,191.34025 1223.7553,191.30318 1227.5625,192.59375 C 1230.388,193.55153 1233.3958,195.88428 1235.25,198.25 C 1236.5626,199.92451 1237.2689,202.73375 1237.375,205.09375 C 1237.4929,207.71842 1236.7091,210.64744 1235.8125,213.40625 C 1234.3652,217.85975 1232.8693,222.41303 1230.4688,226.21875 C 1225.6032,233.93248 1219.3055,240.91553 1213.6875,248.40625 C 1206.6425,257.79964 1198.4633,266.66952 1192.4688,276.9375 C 1186.1645,287.73599 1180.9527,299.49205 1177,311.3125 C 1174.5505,318.6378 1173.6996,326.60445 1173.3125,334.21875 C 1172.9695,340.96204 1173.4578,347.91405 1174.7812,354.53125 C 1176.0908,361.07916 1178.5076,367.4918 1181.1875,373.5625 C 1184.4235,380.8931 1187.5303,388.89325 1192.7188,395.15625 C 1198.0509,401.59266 1205.925,405.57885 1212.0312,410.84375 C 1219.3614,417.16394 1226.5938,423.61835 1233.5312,430.34375 C 1240.3902,436.99314 1247.2722,443.66315 1253.3438,450.90625 C 1257.5231,455.89216 1261.5998,461.20645 1264.25,466.96875 C 1268.0229,475.17234 1269.2616,484.78625 1272.9375,493.53125 C 1276.8471,502.83226 1281.9062,511.62535 1286.7188,520.40625 C 1288.7538,524.11916 1290.7175,528.3596 1293.7812,531.5 C 1295.9807,533.7545 1299.1685,534.5822 1301.6875,535.6875 C 1304.9055,537.0995 1308.2468,539.1289 1312.0938,539.5625 C 1325.1787,541.0375 1338.6404,541.5286 1351.875,541.375 C 1364.9453,541.2233 1378.2753,535.94725 1390,538.65625 C 1409.4816,543.15776 1428.3571,554.3676 1446.9688,563.375 C 1448.8356,564.2785 1450.7506,566.32885 1451.3438,568.03125 C 1451.8584,569.50836 1451.4081,572.16565 1450.6562,574.03125 C 1449.9175,575.86396 1448.3888,577.796 1446.7812,579.0625 C 1444.5944,580.7853 1442.0001,582.48855 1439.5,582.84375 C 1431.9038,583.92264 1423.5956,582.7824 1415.4688,583.375 C 1411.633,583.6547 1408.1675,585.16095 1404.8125,585.34375 C 1396.298,585.80734 1387.6543,585.39315 1379,585.34375 C 1377.3375,585.33414 1375.0807,584.4374 1372.875,585.25 C 1370.8094,586.011 1368.8441,587.7715 1367.8125,589.6875 C 1366.8569,591.4624 1366.4437,593.9349 1367.2188,595.9375 C 1368.1468,598.335 1370.07,601.2856 1372.6562,602.3125 C 1375.231,603.335 1378.5095,602.39265 1380.8438,601.40625 C 1382.1307,600.86246 1383.0524,599.8915 1383.9062,599 C 1384.7599,598.1085 1385.5609,597.2621 1386.375,596.8125 C 1388.2582,595.7725 1390.5073,595.11785 1392.7188,594.78125 C 1398.8333,593.85086 1405.0868,592.0243 1410.6562,593.125 C 1425.0754,595.9748 1439.4136,601.73875 1453.5938,606.84375 C 1458.7313,608.69324 1463.4583,613.5504 1469.5312,614.3125 C 1478.9989,615.5008 1489.4468,614.5846 1498.8438,612.5 C 1506.7445,610.7473 1515.6889,607.8611 1521.7188,602.6875 C 1524.1598,600.593 1525.4324,597.5239 1526.5312,594.4375 C 1527.6299,591.3511 1528.5652,588.2127 1530.0625,585.8125 C 1530.7692,584.6797 1532.261,583.7408 1533.75,583.125 C 1541.9598,579.7296 1550.4526,575.8837 1558.75,574.125 C 1560.9384,573.6611 1563.9127,574.81245 1566.2188,576.03125 C 1567.7699,576.85116 1569.1471,578.64685 1570.375,580.40625 C 1573.0885,584.29426 1574.9741,589.00075 1578,593.09375 C 1585.5571,603.31524 1594.2185,612.71365 1601.7188,622.78125 C 1603.1379,624.68616 1604.4614,626.8166 1604.7812,628.875 C 1605.7588,635.1658 1604.0096,642.50695 1605.6875,649.21875 C 1606.8762,653.97284 1610.0468,658.3522 1613.1562,661.9375 C 1616.2658,665.5231 1621.114,667.16855 1623.6562,670.09375 C 1625.0379,671.68374 1625.81,674.2524 1626.125,676.625 C 1627.6042,687.7686 1629.035,699.3157 1628.8438,710.3125 C 1628.8023,712.6934 1627.2249,715.342 1625.5938,717.5 C 1623.4259,720.3681 1620.5363,723.0302 1617.5,725.0625 C 1613.338,727.8483 1607.9758,729.25625 1603.4062,732.28125 C 1599.182,735.07756 1594.8113,738.3801 1591.5938,742.25 C 1589.9582,744.2171 1589.7309,746.96655 1589.5625,749.15625 C 1589.3015,752.54906 1589.3403,756.19315 1590.125,759.59375 C 1591.0151,763.45064 1592.2978,767.60115 1594.625,770.96875 C 1597.705,775.42574 1602.4177,778.49605 1605.7188,782.28125 C 1606.7992,783.52036 1607.9018,784.98495 1608.0312,786.09375 C 1608.24,787.88434 1607.7187,790.2325 1606.8438,792.0625 C 1601.8841,802.4372 1596.6064,813.10235 1590.4375,822.53125 C 1589.4843,823.98816 1587.229,825.0097 1585.2188,825.5625 C 1582.5228,826.304 1579.2947,826.9712 1577.1875,826.125 C 1572.33,824.1744 1567.7104,820.0783 1563.125,816.5 C 1554.8766,810.0633 1547.4912,801.30705 1538.5938,795.96875 C 1535.6057,794.17594 1531.4589,795.00995 1528.625,796.28125 C 1526.4719,797.24716 1524.7978,798.96225 1523.1875,800.59375 C 1521.5772,802.22514 1520.0275,803.7846 1518.2812,804.625 C 1511.1507,808.0568 1502.3633,808.89665 1494.75,812.59375 C 1487.3871,816.16914 1480.3594,820.94835 1474.0938,826.09375 C 1471.0234,828.61514 1468.8923,832.1592 1467,835.4375 C 1464.4854,839.7936 1463.4753,844.74575 1461.0312,848.59375 C 1454.7039,858.55484 1447.7182,868.36165 1440.3125,877.46875 C 1438.9884,879.09684 1436.8255,880.31795 1434.7188,881.15625 C 1431.0927,882.59936 1427.0983,883.55465 1423.1875,884.15625 C 1420.9611,884.49876 1418.5824,884.579 1416.5625,884 C 1409.9298,882.0986 1403.4791,878.21935 1396.4375,876.40625 C 1393.0288,875.52876 1389.299,875.56725 1385.875,876.21875 C 1375.5314,878.18664 1364.8386,880.31645 1354.9375,884.21875 C 1344.04,888.51354 1334.496,895.79025 1324.125,900.53125 C 1319.9453,902.44216 1315.3387,903.7909 1310.8125,904.4375 C 1305.9033,905.1387 1300.6604,904.48315 1295.375,904.59375 C 1286.0183,904.78944 1276.5062,906.72035 1267.8438,905.34375 C 1261.5344,904.34114 1255.619,899.9101 1249.0625,897.25 C 1244.8973,895.5601 1240.7069,893.7787 1236.3125,892.5 C 1225.8381,889.4521 1215.0458,887.6528 1204.8438,884.375 C 1198.4652,882.3257 1191.9614,879.8159 1186.4062,876.5 C 1184.5814,875.4109 1183.0799,873.14855 1182.0938,870.96875 C 1179.7478,865.78254 1178.5032,859.9152 1176.5312,854.25 C 1175.2008,850.4285 1174.5303,845.79145 1172.0625,842.21875 C 1170.1082,839.38924 1166.8018,837.5575 1163.9062,836.125 C 1160.9578,834.6664 1157.5292,833.35805 1154.0625,833.28125 C 1143.6093,833.04996 1132.6703,833.6156 1122.4062,835.125 C 1119.8565,835.5 1117.8211,837.3964 1116.375,839.0625 C 1114.8638,840.8036 1113.55,843.1625 1113.25,845.5625 C 1112.8719,848.5863 1113.8259,851.6443 1114.3438,854.375 C 1115.1124,858.4278 1115.0037,863.2223 1117.3438,867.1875 C 1126.1479,882.1057 1139.2656,895.1472 1147,909.875 C 1148.9696,913.6255 1147.3908,919.0642 1147.4375,924.25 C 1147.4538,926.0722 1147.6008,927.81365 1147.125,929.15625 C 1144.9964,935.16366 1142.6353,941.32035 1139.4375,946.71875 C 1137.1909,950.51114 1133.6505,953.7057 1130.5,957.25 C 1128.2209,959.814 1126.2983,962.679 1123.8125,964.3125 C 1120.2471,966.6555 1116.0913,968.96565 1112.125,969.40625 C 1105.207,970.17496 1097.6704,968.6231 1090.25,967.9375 C 1068.2439,965.9041 1046.2929,962.9128 1024.1875,961.25 C 986.09784,958.3846 947.94335,956.097 909.78125,954.375 C 865.02538,952.3554 820.20535,951.72445 775.46875,950.03125 C 726.18774,948.16626 676.9135,945.2434 627.625,943.6875 C 623.30568,943.5511 618.9015,943.9512 614.6875,945 C 591.40678,950.7946 567.9364,956.7541 545.125,964.1875 C 538.06378,966.4885 532.0392,970.9836 525.625,974 C 520.95348,976.197 516.44915,978.77775 511.71875,979.90625 C 504.94174,981.52306 497.5027,981.2151 490.25,982.4375 C 486.62841,983.0479 482.5949,983.6666 479.25,985.4375 C 477.94661,986.1276 477.1886,987.3312 476.5,988.375 C 475.81141,989.4188 475.20895,990.2913 474.53125,990.6875 C 472.73105,991.7399 469.97315,992.49435 468.09375,992.21875 C 466.77458,992.02522 465.30036,991.12124 463.84375,990.09375 C 463.17439,989.27827 462.37965,988.27241 461.78125,987.375 C 460.49688,985.44884 459.27932,983.78591 457.09375,983 C 455.57278,982.45307 453.86765,982.3624 452.28125,982.25 C 449.28425,982.0379 446.31695,982.23555 443.40625,982.03125 C 441.73895,981.91426 439.86555,981.9919 438.78125,981.375 C 437.94645,980.9001 437.1654,979.5789 436.875,978.4375 C 434.31151,968.3613 432.0772,957.9993 430.375,947.6875 C 429.33941,941.4137 431.1685,934.06085 428.5625,928.09375 C 428.05621,926.93424 426.83643,926.20771 425.625,925.53125 C 423.96956,924.60686 422.2811,924.41022 420.5,924.25 C 418.90715,924.10671 417.23585,924.41905 415.71875,924.90625 C 412.92454,925.80376 410.2256,927.0279 407.625,928.3125 C 402.63031,930.7797 397.9442,933.74485 393.0625,936.09375 C 390.84371,937.16134 388.5114,938.10625 386.1875,938.65625 C 383.59461,939.26996 380.8714,939.5849 378.1875,939.625 C 374.91781,939.6738 371.61205,939.5299 368.34375,939.1875 C 365.36724,938.8756 362.34195,938.31615 359.40625,937.65625 C 355.78935,936.84336 352.26645,936.068 348.84375,934.875 C 347.18874,934.2981 345.4097,933.29435 343.9375,932.28125 C 342.84541,931.52976 341.8596,930.3088 340.875,929.0625 C 339.48201,927.2992 338.16935,925.4663 337.09375,923.5625 C 335.64434,920.9968 334.6161,918.08595 333.125,915.28125 C 330.75881,910.83056 328.23845,906.41735 325.65625,902.09375 C 324.35185,899.90954 323.0756,897.56675 321.3125,895.53125 C 319.20511,893.09846 316.7301,891.0086 314.3125,889 C 308.69091,884.3294 302.97135,879.7204 297.09375,875.375 C 295.79294,874.4133 294.30145,873.69145 292.84375,873.15625 C 291.63374,872.71206 290.469,872.73905 289.5,872.59375 C 288.04221,872.37494 286.67075,872.3638 285.53125,872.0625 C 284.28265,871.7325 283.0297,871.2543 282,870.625 C 281.10721,870.0793 280.24525,869.27335 279.53125,868.40625 C 278.60835,867.28556 277.69155,866.14675 277.34375,865.03125 C 276.37604,861.92636 276.1723,858.3689 275.375,854.875 C 274.72551,852.0284 275.8429,848.96585 275.9375,845.53125 C 276.00941,842.91916 275.5647,840.29985 274.9375,837.84375 C 274.08281,834.49624 272.78755,831.2661 271.53125,828.125 C 270.73815,826.1425 269.32955,824.69275 269.15625,823.46875 C 268.93845,821.93184 269.637,819.92185 270.0625,817.84375 C 270.40491,816.17114 271.3403,814.3248 271.5,812.1875 C 271.61691,810.6253 271.33385,808.9828 270.71875,807.5625 C 269.95084,805.7889 268.8177,804.07285 267.4375,802.65625 C 260.61321,795.65256 252.4001,789.7862 246.5,782.625 C 244.85271,780.6255 244.0668,777.2717 244,774.5625 C 243.96231,773.0325 245.2355,771.0647 246.25,769.0625 C 247.44931,766.6954 250.09625,764.39575 250.84375,761.21875 C 251.48815,758.47994 250.8347,755.4276 249.9375,752.875 C 241.43231,728.6763 230.84235,705.0586 222.78125,680.875 C 221.28875,676.398 221.47855,671.3006 221.03125,666.25 C 219.17705,645.3181 216.82865,624.2981 215.96875,603.5 C 215.87945,601.339 216.93465,598.9929 218.03125,596.75 C 220.90295,590.876 224.01815,584.9441 227.71875,579.6875 C 229.13285,577.6789 231.3949,576.0958 233.625,574.5 C 237.92391,571.4238 242.60855,568.77445 247.15625,565.84375 C 250.68445,563.56994 254.9138,561.80465 258.1875,558.65625 C 267.69211,549.51556 277.78605,540.2068 285.28125,529.1875 C 295.12475,514.7159 302.87515,498.50225 309.96875,482.53125 C 313.49734,474.58716 315.33885,465.92805 317.09375,457.53125 C 319.28084,447.06746 319.9209,436.3525 321.8125,426 C 323.21461,418.3269 325.245,410.7262 327.0625,403.0625 C 328.85611,395.4995 331.27605,387.98725 332.65625,380.21875 C 333.42345,375.90014 333.46895,371.4814 333.40625,367.1875 C 333.34755,363.1719 333.1273,359.0578 332.3125,355.0625 C 331.23241,349.7668 329.90225,344.30895 327.71875,339.28125 C 325.21714,333.52096 321.5919,328.3297 318.4375,323.0625 C 315.15831,317.5869 310.87565,312.669 308.53125,307.25 C 307.37685,304.5818 307.03585,301.03674 307.53125,298.25 C 307.91235,296.10608 309.43045,293.38516 311.09375,292.1875 C 313.28854,290.6073 317.02555,290.33434 320.40625,289.25 L 319.8125,287.34375 C 316.79861,288.31047 312.8453,288.46886 309.9375,290.5625 C 307.65471,292.20614 306.01225,295.16933 305.53125,297.875 C 304.95835,301.09728 305.3432,304.9553 306.6875,308.0625 C 309.20431,313.8799 313.56635,318.82975 316.71875,324.09375 C 319.92174,329.44204 323.4813,334.58185 325.875,340.09375 C 327.96571,344.90784 329.27425,350.1933 330.34375,355.4375 C 331.11954,359.2414 331.34835,363.26095 331.40625,367.21875 C 331.46845,371.48054 331.4152,375.7792 330.6875,379.875 C 329.33991,387.4602 326.91265,394.9557 325.09375,402.625 C 323.28464,410.2537 321.26485,417.87925 319.84375,425.65625 C 317.92284,436.16956 317.30285,446.8544 315.15625,457.125 C 313.40235,465.5161 311.57015,474.03245 308.15625,481.71875 C 301.07845,497.65394 293.3525,513.7616 283.625,528.0625 C 276.30561,538.8234 266.30585,548.05865 256.78125,557.21875 C 253.86795,560.02034 249.82305,561.75305 246.09375,564.15625 C 241.61105,567.04516 236.88365,569.7158 232.46875,572.875 C 230.26175,574.4544 227.79335,576.11715 226.09375,578.53125 C 222.29065,583.93336 219.10825,589.9647 216.21875,595.875 C 215.11355,598.1357 213.85145,600.75355 213.96875,603.59375 C 214.83255,624.48644 217.17985,645.5365 219.03125,666.4375 C 219.46305,671.3135 219.2277,676.5583 220.875,681.5 C 228.97841,705.8104 239.56295,729.4691 248.03125,753.5625 C 248.86165,755.9251 249.39515,758.70325 248.90625,760.78125 C 248.37415,763.04286 245.92625,765.27985 244.46875,768.15625 C 243.55525,769.95926 241.938,772.08205 242,774.59375 C 242.07461,777.61524 242.8151,781.33015 244.9375,783.90625 C 251.07281,791.35306 259.3496,797.20595 266,804.03125 C 267.19181,805.25456 268.2048,806.8272 268.875,808.375 C 269.35561,809.4849 269.61975,810.8787 269.53125,812.0625 C 269.41375,813.634 268.51335,815.3884 268.09375,817.4375 C 267.71264,819.299 266.8667,821.4856 267.1875,823.75 C 267.50111,825.964 269.1303,827.4821 269.6875,828.875 C 270.94171,832.0107 272.1875,835.16155 273,838.34375 C 273.60141,840.69914 274.0017,843.1675 273.9375,845.5 C 273.85551,848.4774 272.6204,851.76225 273.4375,855.34375 C 274.18341,858.61274 274.3686,862.1955 275.4375,865.625 C 275.94881,867.2651 277.04715,868.5682 277.96875,869.6875 C 278.78834,870.6826 279.7842,871.63885 280.9375,872.34375 C 282.20501,873.11824 283.6269,873.6371 285,874 C 286.48711,874.3931 287.9375,874.375 289.1875,874.5625 C 290.33671,874.7349 291.37895,874.7772 292.15625,875.0625 C 293.47695,875.5474 294.80465,876.1856 295.90625,877 C 301.74245,881.3148 307.42855,885.87645 313.03125,890.53125 C 315.43605,892.52926 317.8398,894.56635 319.8125,896.84375 C 321.38961,898.66444 322.6097,900.9016 323.9375,903.125 C 326.50511,907.4241 328.99535,911.80145 331.34375,916.21875 C 332.73904,918.84304 333.77675,921.7887 335.34375,924.5625 C 336.50004,926.6093 337.8919,928.48305 339.3125,930.28125 C 340.27991,931.50586 341.31945,932.9317 342.78125,933.9375 C 344.36555,935.0278 346.2816,936.11695 348.1875,936.78125 C 351.76091,938.02686 355.36155,938.78295 358.96875,939.59375 C 361.95984,940.26604 365.0468,940.83375 368.125,941.15625 C 371.47021,941.50676 374.86645,941.675 378.21875,941.625 C 381.03834,941.5829 383.90545,941.24475 386.65625,940.59375 C 389.18365,939.99554 391.6414,939.01115 393.9375,937.90625 C 398.95881,935.49016 403.6318,932.5298 408.5,930.125 C 411.05761,928.8616 413.6641,927.6631 416.3125,926.8125 C 417.61751,926.3933 419.08915,926.1936 420.40625,926.25 C 422.06075,926.321 423.07285,926.604 423.90625,927.875 C 424.66565,929.0332 425.3057,930.67175 425.4375,932.03125 C 425.93771,937.19236 425.53715,942.65505 425.84375,948.09375 C 425.99684,950.80654 426.3134,953.5063 426.8125,956.1875 C 427.61771,960.5131 428.38315,964.8821 429.53125,969.1875 C 430.45285,972.644 431.48895,976.2124 433.03125,979.5 C 433.84265,981.2295 434.9141,983.4883 436.9375,984.5 C 439.41341,985.7379 442.3805,985.2734 444.6875,985.5 C 449.11481,985.9349 453.74575,985.4675 457.34375,986.5625 C 457.78844,986.6978 458.2766,987.1742 458.8125,987.9375 C 459.34841,988.7008 459.88735,989.6702 460.84375,990.375 C 462.79124,991.81 465.0969,993.7892 467.8125,994.1875 C 470.39311,994.566 473.35685,993.7086 475.53125,992.4375 C 476.78735,991.7031 477.5057,990.50225 478.1875,989.46875 C 478.86931,988.43514 479.4953,987.554 480.1875,987.1875 C 483.10681,985.642 486.9289,985.01865 490.5625,984.40625 C 497.53041,983.23186 505.0393,983.5803 512.1875,981.875 C 517.30018,980.6552 521.89865,977.9618 526.46875,975.8125 C 533.13314,972.6785 539.07885,968.25745 545.71875,966.09375 C 568.44604,958.68774 591.88255,952.7304 615.15625,946.9375 C 619.16348,945.9401 623.4046,945.5562 627.5625,945.6875 C 676.81438,947.2422 726.09685,950.16515 775.40625,952.03125 C 820.17448,953.72556 864.9729,954.3573 909.6875,956.375 C 947.82978,958.0962 985.96155,960.3861 1024.0312,963.25 C 1046.0557,964.9068 1067.9983,967.8988 1090.0625,969.9375 C 1097.3287,970.6089 1104.9846,972.1927 1112.3438,971.375 C 1116.9031,970.8685 1121.2561,968.36725 1124.9062,965.96875 C 1127.8731,964.01894 1129.8585,960.9717 1132,958.5625 C 1135.0461,955.1356 1138.6957,951.9037 1141.1562,947.75 C 1144.472,942.1524 1146.8901,935.8548 1149.0312,929.8125 C 1149.7152,927.8822 1149.4526,925.89975 1149.4375,924.21875 C 1149.3952,919.51554 1151.2867,913.7084 1148.7812,908.9375 C 1140.8419,893.8197 1127.6813,880.7916 1119.0625,866.1875 C 1117.1084,862.8765 1117.1343,858.36445 1116.3125,854.03125 C 1115.7665,851.15236 1114.9165,848.2296 1115.2188,845.8125 C 1115.4452,844.0011 1116.5875,841.8584 1117.875,840.375 C 1119.1803,838.8711 1121.0183,837.33925 1122.6875,837.09375 C 1132.8173,835.60404 1143.6781,835.05215 1154.0312,835.28125 C 1157.0253,835.34756 1160.1898,836.51605 1163,837.90625 C 1165.8077,839.29536 1168.8347,841.0999 1170.4062,843.375 C 1172.4962,846.4008 1173.2072,850.83375 1174.625,854.90625 C 1176.5408,860.40996 1177.8133,866.3571 1180.2812,871.8125 C 1181.3581,874.1932 1182.9542,876.77375 1185.375,878.21875 C 1191.1384,881.65884 1197.7659,884.20815 1204.2188,886.28125 C 1214.606,889.61866 1225.4267,891.4336 1235.75,894.4375 C 1239.9968,895.6732 1244.1317,897.39755 1248.3125,899.09375 C 1254.524,901.61384 1260.5367,906.201 1267.5312,907.3125 C 1276.6929,908.7685 1286.3018,906.78415 1295.4062,906.59375 C 1300.495,906.48724 1305.8263,907.15875 1311.0938,906.40625 C 1315.8158,905.73176 1320.5768,904.33725 1324.9375,902.34375 C 1335.5853,897.47614 1345.1092,890.25035 1355.6562,886.09375 C 1365.3318,882.28034 1375.9204,880.12165 1386.25,878.15625 C 1389.4198,877.55316 1392.8858,877.55805 1395.9375,878.34375 C 1402.5845,880.05524 1409.0122,883.9343 1416,885.9375 C 1418.4575,886.6419 1421.1168,886.4916 1423.5,886.125 C 1427.5274,885.5054 1431.6599,884.5158 1435.4688,883 C 1437.7511,882.0917 1440.1757,880.76995 1441.8438,878.71875 C 1449.3024,869.54654 1456.3511,859.68105 1462.7188,849.65625 C 1465.436,845.37846 1466.4314,840.4001 1468.7188,836.4375 C 1470.5906,833.1946 1472.6636,829.88305 1475.375,827.65625 C 1481.5455,822.58906 1488.4456,817.8614 1495.625,814.375 C 1502.7877,810.8968 1511.5758,810.05455 1519.1562,806.40625 C 1521.3354,805.35746 1523.0175,803.6286 1524.625,802 C 1526.2325,800.3714 1527.7557,798.84815 1529.4375,798.09375 C 1531.8434,797.01444 1535.6105,796.5163 1537.5625,797.6875 C 1546.0455,802.7773 1553.4271,811.4458 1561.9062,818.0625 C 1566.4129,821.5794 1571.0974,825.8556 1576.4375,828 C 1579.4555,829.212 1583.0047,828.22375 1585.75,827.46875 C 1587.9505,826.86354 1590.668,825.8518 1592.125,823.625 C 1598.3861,814.0552 1603.6887,803.29745 1608.6562,792.90625 C 1609.6781,790.76876 1610.2715,788.17175 1610,785.84375 C 1609.7653,783.83204 1608.3603,782.24195 1607.25,780.96875 C 1603.6931,776.89014 1599.0491,773.84915 1596.2812,769.84375 C 1594.2009,766.83344 1592.9594,762.90695 1592.0938,759.15625 C 1591.3765,756.04826 1591.3113,752.5777 1591.5625,749.3125 C 1591.7265,747.1809 1592.0554,744.81775 1593.125,743.53125 C 1596.1304,739.91656 1600.354,736.71315 1604.5,733.96875 C 1608.6925,731.19334 1614.0803,729.76065 1618.625,726.71875 C 1621.8429,724.56484 1624.865,721.79135 1627.1875,718.71875 C 1628.9086,716.44154 1630.7886,713.52305 1630.8438,710.34375 C 1631.0384,699.15114 1629.6059,687.50035 1628.125,676.34375 C 1627.7806,673.74924 1626.9691,670.86745 1625.1562,668.78125 C 1622.0855,665.24806 1617.2456,663.6108 1614.6562,660.625 C 1611.6407,657.1481 1608.6791,652.93465 1607.625,648.71875 C 1606.1161,642.68324 1607.8143,635.411 1606.75,628.5625 C 1606.3369,625.9037 1604.7859,623.57135 1603.3125,621.59375 C 1595.7285,611.41374 1587.0649,602.01145 1579.5938,591.90625 C 1576.7751,588.09366 1574.9241,583.42625 1572.0312,579.28125 C 1570.7819,577.49136 1569.2712,575.3844 1567.125,574.25 C 1564.6826,572.9591 1561.4238,571.49675 1558.3125,572.15625 C 1549.7099,573.97966 1541.165,577.90435 1533,581.28125 C 1531.3186,581.97676 1529.4593,583.0119 1528.375,584.75 C 1526.6657,587.4898 1525.7276,590.77175 1524.6562,593.78125 C 1523.5847,596.79086 1522.3656,599.47505 1520.4062,601.15625 C 1514.8473,605.92576 1506.1599,608.81115 1498.4062,610.53125 C 1489.193,612.57516 1478.9396,613.49315 1469.7812,612.34375 C 1464.6794,611.70344 1460.0116,607.04285 1454.25,604.96875 C 1440.1176,599.88104 1425.7051,594.05645 1411.0312,591.15625 C 1404.7929,589.92346 1398.3567,591.88055 1392.4375,592.78125 C 1390.0329,593.14716 1387.5567,593.8748 1385.4062,595.0625 C 1384.1954,595.7311 1383.3032,596.72245 1382.4688,597.59375 C 1381.6344,598.46494 1380.8569,599.2268 1380.0625,599.5625 C 1377.9936,600.4367 1374.9054,601.0329 1373.4062,600.4375 C 1371.8624,599.8246 1369.8179,597.17005 1369.0625,595.21875 C 1368.6255,594.08974 1368.913,591.8314 1369.5625,590.625 C 1370.3039,589.2482 1372.122,587.6557 1373.5625,587.125 C 1374.7276,586.6958 1376.8001,587.33115 1379,587.34375 C 1387.5973,587.39284 1396.2853,587.81485 1404.9375,587.34375 C 1408.7873,587.13404 1412.259,585.6205 1415.625,585.375 C 1423.4617,584.8036 1431.7989,585.9463 1439.7812,584.8125 C 1442.9372,584.3642 1445.751,582.4215 1448.0312,580.625 C 1449.9196,579.1371 1451.5969,577.02205 1452.5,574.78125 C 1453.3642,572.63676 1454.0792,569.7548 1453.25,567.375 C 1452.4123,564.9712 1450.2466,562.7254 1447.8438,561.5625 C 1429.3419,552.6083 1410.3503,541.2886 1390.4375,536.6875 C 1377.853,533.7798 1364.3704,539.2296 1351.8438,539.375 C 1338.6747,539.5278 1325.3266,539.05725 1312.3438,537.59375 C 1309.0792,537.22574 1305.8773,535.3569 1302.5,533.875 C 1299.7906,532.6861 1296.8519,531.79965 1295.1875,530.09375 C 1292.4633,527.30134 1290.5487,523.26365 1288.4688,519.46875 C 1283.642,510.66204 1278.6255,501.92685 1274.7812,492.78125 C 1271.2501,484.38076 1270.0112,474.7109 1266.0625,466.125 C 1263.2835,460.0826 1259.1238,454.6565 1254.9062,449.625 C 1248.7431,442.2726 1241.7627,435.55325 1234.9062,428.90625 C 1227.9301,422.14346 1220.6923,415.67965 1213.3438,409.34375 C 1206.9819,403.85834 1199.2474,399.8697 1194.2812,393.875 C 1189.3778,387.9561 1186.2594,380.1337 1183,372.75 C 1180.3515,366.7503 1178.0162,360.48695 1176.75,354.15625 C 1175.4612,347.71216 1174.978,340.8901 1175.3125,334.3125 C 1175.6958,326.7741 1176.5206,318.9783 1178.875,311.9375 C 1182.7867,300.23971 1187.9604,288.60371 1194.1875,277.9375 C 1200.0329,267.92494 1208.1523,259.13034 1215.2812,249.625 C 1220.8257,242.23218 1227.1667,235.19147 1232.1562,227.28125 C 1234.7406,223.18389 1236.2414,218.48125 1237.6875,214.03125 C 1238.6027,211.21548 1239.5136,208.08475 1239.375,205 C 1239.2551,202.33152 1238.5461,199.21165 1236.8125,197 C 1234.7149,194.32376 1231.5453,191.81508 1228.2188,190.6875 C 1223.9411,189.23745 1219.0698,189.34033 1214.6562,189.375 C 1195.8718,189.52252 1176.628,194.05426 1158.9062,191.1875 C 1144.4068,188.84201 1131.0015,179.32228 1116.5938,173.53125 C 1099.8034,166.78253 1083.149,159.24603 1065.8438,153.78125 C 1054.3211,150.14251 1042.227,148.23686 1030.4062,146.3125 C 1026.5755,145.68891 1022.4831,145.55601 1018.7188,146.125 C 1016.8547,146.40677 1014.9953,147.50216 1013.875,149.0625 C 1009.6436,154.95633 1006.7769,161.9299 1002.8125,167.75 C 1001.2146,170.09587 999.37955,172.39749 997.15625,173.78125 C 991.02248,177.59875 984.185,180.94418 977.4375,183.46875 C 975.70828,184.11573 973.39865,183.87055 971.21875,183.59375 C 969.60384,183.38868 967.89765,183.06508 967.09375,182.25 C 959.75724,174.81019 953.4712,165.77587 946.125,157.84375 C 943.55778,155.07176 940.7524,152.25145 937.375,150.25 C 917.79068,138.6445 897.65695,127.13629 877.40625,117.09375 C 875.03148,115.91608 872.24665,116.59722 870.15625,117.21875 C 867.33558,118.05731 865.32465,120.25414 863.21875,121.03125 C 861.86564,121.53064 860.40715,122.16394 859.03125,122.5625 C 857.65528,122.96106 856.4148,123.07813 855.5625,122.8125 C 854.67818,122.53686 853.4616,121.72812 852.5,120.6875 C 851.53838,119.64688 850.8179,118.39275 850.625,117.4375 C 850.29448,115.80099 850.6244,113.81426 851.125,111.6875 C 851.62558,109.56074 852.268,107.30205 852.4375,105.03125 C 852.71678,101.28877 853.67875,97.04795 852.40625,93.0625 C 847.15828,76.625823 840.5229,60.08625 833.1875,44.4375 C 831.33608,40.487939 827.9247,37.56325 825,34.75 C 821.63868,31.516779 818.0888,27.70336 813.6875,25.6875 C 809.64308,23.835081 804.84095,23.88487 800.65625,23.59375 C 799.97536,23.546385 799.26697,23.487614 798.5625,23.46875 z M 334.03125,288.9375 C 333.97635,288.95348 333.89905,289.03132 333.78125,289.09375 C 333.78665,289.08627 333.8125,289.03123 333.8125,289.03125 C 333.81201,289.03149 333.98555,288.94684 334.03125,288.9375 z M 334.90625,289.21875 C 334.94435,289.25355 335.0002,289.31277 335,289.3125 C 334.99991,289.31243 335.0014,289.41585 335,289.4375 C 334.96331,289.34168 334.91755,289.24819 334.90625,289.21875 z M 333.5,289.46875 C 333.48321,289.73393 333.4521,290.07352 333.4375,290.3125 C 333.33831,290.05345 333.25,289.78108 333.25,289.78125 C 333.25001,289.78137 333.3853,289.62558 333.5,289.46875 z M 334.90625,290.5 C 334.90485,290.52167 334.90615,290.62505 334.90625,290.625 C 334.90635,290.62488 334.82045,290.66582 334.78125,290.6875 C 334.81795,290.63732 334.84245,290.58714 334.90625,290.5 z M 425.4375,926.5625 C 426.46624,927.10268 427.31332,927.78634 427.625,928.5 C 430.03761,934.0245 428.32165,941.3049 429.40625,947.875 C 431.11365,958.2184 433.33625,968.5863 435.90625,978.6875 C 436.25255,980.0487 437.0782,981.51645 438.3125,982.21875 C 439.80741,983.06914 441.7517,982.92175 443.3125,983.03125 C 446.30971,983.24166 449.30865,983.044 452.21875,983.25 C 453.78114,983.3606 455.3789,983.54855 456.8125,983.96875 C 457.36283,984.13 457.89448,984.43024 458.375,984.78125 C 458.23837,984.71812 458.08946,984.67125 457.9375,984.625 C 453.75621,983.3525 449.03305,983.9053 444.90625,983.5 C 442.25455,983.2395 439.4492,983.53695 437.8125,982.71875 C 436.70941,982.16714 435.62255,980.31615 434.84375,978.65625 C 433.39154,975.56066 432.38215,972.1126 431.46875,968.6875 C 430.34994,964.4916 429.58835,960.1487 428.78125,955.8125 C 428.29875,953.2204 427.99235,950.60265 427.84375,947.96875 C 427.54714,942.70744 427.9603,937.23825 427.4375,931.84375 C 427.26511,930.06504 426.53995,928.22435 425.59375,926.78125 C 425.54401,926.70539 425.48957,926.63418 425.4375,926.5625 z"
       transform="translate(993.0682,696.75781)"
       id="path3929"
       style="fill:#000000;fill-opacity:1;fill-rule:evenodd;stroke:#ffffff;stroke-width:0.25;stroke-linecap:butt;stroke-linejoin:miter;stroke-miterlimit:4;stroke-dasharray:none;stroke-opacity:1" />
    <g
       id="g4413">
      <path
         d="M 1104.8061,1497.433 A 8.5865755,8.5865755 0 1 1 1087.6329,1497.433 A 8.5865755,8.5865755 0 1 1 1104.8061,1497.433 z"
         transform="translate(405.00015,114.48767)"
         id="path3966"
         style="fill:#f3f993;fill-opacity:1;fill-rule:nonzero;stroke:#010101;stroke-width:1;stroke-linecap:round;stroke-linejoin:round;stroke-miterlimit:4;stroke-dasharray:none;stroke-dashoffset:0;stroke-opacity:1" />
      <text
         x="1521.255"
         y="1596.1787"
         id="text3992"
         xml:space="preserve"
         style="font-size:28px;font-style:normal;font-variant:normal;font-weight:bold;font-stretch:normal;text-align:start;line-height:125%;writing-mode:lr-tb;text-anchor:start;fill:#000000;fill-opacity:1;stroke:#ffffff;stroke-width:0.75;stroke-linecap:butt;stroke-linejoin:miter;stroke-miterlimit:4;stroke-dasharray:none;stroke-opacity:1;font-family:Times New Roman;-inkscape-font-specification:Times New Roman Bold"><tspan
           x="1521.255"
           y="1596.1787"
           id="tspan3994">Nrburg</tspan></text>
    </g>
    <g
       id="g4408">
      <path
         d="M 1104.8061,1497.433 A 8.5865755,8.5865755 0 1 1 1087.6329,1497.433 A 8.5865755,8.5865755 0 1 1 1104.8061,1497.433 z"
         transform="translate(352.76849,-207.2285)"
         id="path3970"
         style="fill:#f3f993;fill-opacity:1;fill-rule:nonzero;stroke:#010101;stroke-width:1;stroke-linecap:round;stroke-linejoin:round;stroke-miterlimit:4;stroke-dasharray:none;stroke-dashoffset:0;stroke-opacity:1" />
      <text
         x="1465.4423"
         y="1278.4755"
         id="text3996"
         xml:space="preserve"
         style="font-size:28px;font-style:normal;font-variant:normal;font-weight:bold;font-stretch:normal;text-align:start;line-height:125%;writing-mode:lr-tb;text-anchor:start;fill:#000000;fill-opacity:1;stroke:#ffffff;stroke-width:0.75;stroke-linecap:butt;stroke-linejoin:miter;stroke-miterlimit:4;stroke-dasharray:none;stroke-opacity:1;font-family:Times New Roman;-inkscape-font-specification:Times New Roman Bold"><tspan
           x="1465.4423"
           y="1278.4755"
           id="tspan3998">Quiddelbach</tspan></text>
    </g>
    <g
       id="g4403">
      <path
         d="M 1104.8061,1497.433 A 8.5865755,8.5865755 0 1 1 1087.6329,1497.433 A 8.5865755,8.5865755 0 1 1 1104.8061,1497.433 z"
         transform="translate(872.25631,-509.18974)"
         id="path4000"
         style="fill:#f3f993;fill-opacity:1;fill-rule:nonzero;stroke:#010101;stroke-width:1;stroke-linecap:round;stroke-linejoin:round;stroke-miterlimit:4;stroke-dasharray:none;stroke-dashoffset:0;stroke-opacity:1" />
      <text
         x="1989.2234"
         y="979.37628"
         id="text4002"
         xml:space="preserve"
         style="font-size:28px;font-style:normal;font-variant:normal;font-weight:bold;font-stretch:normal;text-align:start;line-height:125%;writing-mode:lr-tb;text-anchor:start;fill:#000000;fill-opacity:1;stroke:#ffffff;stroke-width:0.75;stroke-linecap:butt;stroke-linejoin:miter;stroke-miterlimit:4;stroke-dasharray:none;stroke-opacity:1;font-family:Times New Roman;-inkscape-font-specification:Times New Roman Bold"><tspan
           x="1989.2234"
           y="979.37628"
           id="tspan4004">Breidscheid</tspan></text>
    </g>
    <g
       id="g4398">
      <path
         d="M 1104.8061,1497.433 A 8.5865755,8.5865755 0 1 1 1087.6329,1497.433 A 8.5865755,8.5865755 0 1 1 1104.8061,1497.433 z"
         transform="translate(852.22097,-778.23577)"
         id="path3968"
         style="fill:#f3f993;fill-opacity:1;fill-rule:nonzero;stroke:#010101;stroke-width:1;stroke-linecap:round;stroke-linejoin:round;stroke-miterlimit:4;stroke-dasharray:none;stroke-dashoffset:0;stroke-opacity:1" />
      <text
         x="1972.0503"
         y="716.05469"
         id="text4006"
         xml:space="preserve"
         style="font-size:28px;font-style:normal;font-variant:normal;font-weight:bold;font-stretch:normal;text-align:start;line-height:125%;writing-mode:lr-tb;text-anchor:start;fill:#000000;fill-opacity:1;stroke:#ffffff;stroke-width:0.75;stroke-linecap:butt;stroke-linejoin:miter;stroke-miterlimit:4;stroke-dasharray:none;stroke-opacity:1;font-family:Times New Roman;-inkscape-font-specification:Times New Roman Bold"><tspan
           x="1972.0503"
           y="716.05469"
           id="tspan4008">Adenau</tspan></text>
    </g>
    <text
       x="1013.1418"
       y="1614.3182"
       id="text4012"
       xml:space="preserve"
       style="font-size:28px;font-style:normal;font-weight:normal;fill:#000000;fill-opacity:1;stroke:none;stroke-width:1px;stroke-linecap:butt;stroke-linejoin:miter;stroke-opacity:1;font-family:Times New Roman"><tspan
         x="1013.1418"
         y="1614.3182"
         id="tspan4014"></tspan></text>
    <text
       x="1381.9255"
       y="1573.7925"
       id="text4024"
       xml:space="preserve"
       style="font-size:28px;font-style:normal;font-variant:normal;font-weight:bold;font-stretch:normal;text-align:start;line-height:125%;writing-mode:lr-tb;text-anchor:start;fill:#005657;fill-opacity:1;stroke:#fefefe;stroke-width:0.75;stroke-linecap:butt;stroke-linejoin:miter;stroke-miterlimit:4;stroke-dasharray:none;stroke-opacity:1;font-family:Times New Roman;-inkscape-font-specification:Times New Roman Bold"><tspan
         x="1381.9255"
         y="1573.7925"
         id="tspan4026">Nordkehre</tspan></text>
    <text
       x="1329.2419"
       y="1542.7227"
       id="text4028"
       xml:space="preserve"
       style="font-size:28px;font-style:normal;font-variant:normal;font-weight:bold;font-stretch:normal;text-align:start;line-height:125%;writing-mode:lr-tb;text-anchor:start;fill:#005657;fill-opacity:1;stroke:#fefefe;stroke-width:0.75;stroke-linecap:butt;stroke-linejoin:miter;stroke-miterlimit:4;stroke-dasharray:none;stroke-opacity:1;font-family:Times New Roman;-inkscape-font-specification:Times New Roman Bold"><tspan
         x="1329.2419"
         y="1542.7227"
         id="tspan4030">Hatzenbach</tspan></text>
    <text
       x="1303.5757"
       y="1508.9514"
       id="text4032"
       xml:space="preserve"
       style="font-size:28px;font-style:normal;font-variant:normal;font-weight:bold;font-stretch:normal;text-align:start;line-height:125%;writing-mode:lr-tb;text-anchor:start;fill:#005657;fill-opacity:1;stroke:#fefefe;stroke-width:0.75;stroke-linecap:butt;stroke-linejoin:miter;stroke-miterlimit:4;stroke-dasharray:none;stroke-opacity:1;font-family:Times New Roman;-inkscape-font-specification:Times New Roman Bold"><tspan
         x="1303.5757"
         y="1508.9514"
         id="tspan4034">Hocheichen</tspan></text>
    <path
       d="M 1695.937,1398.5206 L 1671.4558,1398.5206 L 1683.6964,1377.3193 L 1695.937,1398.5206 z"
       transform="matrix(0.4306305,0.2806321,0.8505724,-1.3052049,-480.10712,2942.8013)"
       id="path3572"
       style="opacity:1;fill:#000000;fill-opacity:1;stroke:#ffffff;stroke-width:0.83812821;stroke-linecap:round;stroke-linejoin:miter;stroke-miterlimit:4;stroke-dasharray:none;stroke-dashoffset:0;stroke-opacity:1;display:inline" />
    <path
       d="M 1695.937,1398.5206 L 1671.4558,1398.5206 L 1683.6964,1377.3193 L 1695.937,1398.5206 z"
       transform="matrix(0.482361,0.1775525,0.5381468,-1.4619956,-212.3718,3324.1285)"
       id="path4312"
       style="opacity:1;fill:#000000;fill-opacity:1;stroke:#ffffff;stroke-width:0.83812821;stroke-linecap:round;stroke-linejoin:miter;stroke-miterlimit:4;stroke-dasharray:none;stroke-dashoffset:0;stroke-opacity:1;display:inline" />
    <path
       d="M 1695.937,1398.5206 L 1671.4558,1398.5206 L 1683.6964,1377.3193 L 1695.937,1398.5206 z"
       transform="matrix(0.3303713,0.3937661,1.1934722,-1.0013277,-921.39212,2257.9796)"
       id="path4314"
       style="opacity:1;fill:#000000;fill-opacity:1;stroke:#ffffff;stroke-width:0.83812821;stroke-linecap:round;stroke-linejoin:miter;stroke-miterlimit:4;stroke-dasharray:none;stroke-dashoffset:0;stroke-opacity:1;display:inline" />
    <g
       id="g4418">
      <text
         x="1002.0596"
         y="1431.9526"
         id="text4036"
         xml:space="preserve"
         style="font-size:28px;font-style:normal;font-variant:normal;font-weight:bold;font-stretch:normal;text-align:start;line-height:125%;writing-mode:lr-tb;text-anchor:start;fill:#005657;fill-opacity:1;stroke:#fefefe;stroke-width:0.75;stroke-linecap:butt;stroke-linejoin:miter;stroke-miterlimit:4;stroke-dasharray:none;stroke-opacity:1;font-family:Times New Roman;-inkscape-font-specification:Times New Roman Bold"><tspan
           x="1002.0596"
           y="1431.9526"
           id="tspan4038">Quiddelbacher</tspan></text>
      <path
         d="M 1695.937,1398.5206 L 1671.4558,1398.5206 L 1683.6964,1377.3193 L 1695.937,1398.5206 z"
         transform="matrix(-5.64714e-2,-0.5108894,-1.5484629,0.17116,3450.0178,2043.5101)"
         id="path4316"
         style="opacity:1;fill:#000000;fill-opacity:1;stroke:#ffffff;stroke-width:0.83812821;stroke-linecap:round;stroke-linejoin:miter;stroke-miterlimit:4;stroke-dasharray:none;stroke-dashoffset:0;stroke-opacity:1;display:inline" />
    </g>
    <g
       id="g4423">
      <text
         x="1263.0502"
         y="1317.1299"
         id="text4040"
         xml:space="preserve"
         style="font-size:28px;font-style:normal;font-variant:normal;font-weight:bold;font-stretch:normal;text-align:start;line-height:125%;writing-mode:lr-tb;text-anchor:start;fill:#005657;fill-opacity:1;stroke:#fefefe;stroke-width:0.75;stroke-linecap:butt;stroke-linejoin:miter;stroke-miterlimit:4;stroke-dasharray:none;stroke-opacity:1;font-family:Times New Roman;-inkscape-font-specification:Times New Roman Bold"><tspan
           x="1263.0502"
           y="1317.1299"
           id="tspan4042">Flugplatz</tspan></text>
      <path
         d="M 1695.937,1398.5206 L 1671.4558,1398.5206 L 1683.6964,1377.3193 L 1695.937,1398.5206 z"
         transform="matrix(-0.1981919,0.4742541,1.4374244,0.600703,-424.64728,-340.49366)"
         id="path4318"
         style="opacity:1;fill:#000000;fill-opacity:1;stroke:#ffffff;stroke-width:0.83812821;stroke-linecap:round;stroke-linejoin:miter;stroke-miterlimit:4;stroke-dasharray:none;stroke-dashoffset:0;stroke-opacity:1;display:inline" />
    </g>
    <g
       id="g4428">
      <text
         x="1076.4067"
         y="1092.8879"
         id="text4044"
         xml:space="preserve"
         style="font-size:28px;font-style:normal;font-variant:normal;font-weight:bold;font-stretch:normal;text-align:start;line-height:125%;writing-mode:lr-tb;text-anchor:start;fill:#005657;fill-opacity:1;stroke:#fefefe;stroke-width:0.75;stroke-linecap:butt;stroke-linejoin:miter;stroke-miterlimit:4;stroke-dasharray:none;stroke-opacity:1;font-family:Times New Roman;-inkscape-font-specification:Times New Roman Bold"><tspan
           x="1076.4067"
           y="1092.8879"
           id="tspan4046">Schwedenkreuz</tspan></text>
      <path
         d="M 1695.937,1398.5206 L 1671.4558,1398.5206 L 1683.6964,1377.3193 L 1695.937,1398.5206 z"
         transform="matrix(8.5484167e-2,-0.5068426,-1.5361975,-0.2590954,3281.7876,2302.8593)"
         id="path4320"
         style="opacity:1;fill:#000000;fill-opacity:1;stroke:#ffffff;stroke-width:0.83812821;stroke-linecap:round;stroke-linejoin:miter;stroke-miterlimit:4;stroke-dasharray:none;stroke-dashoffset:0;stroke-opacity:1;display:inline" />
    </g>
    <g
       id="g4433">
      <text
         x="1146.8765"
         y="960.50403"
         id="text4048"
         xml:space="preserve"
         style="font-size:28px;font-style:normal;font-variant:normal;font-weight:bold;font-stretch:normal;text-align:start;line-height:125%;writing-mode:lr-tb;text-anchor:start;fill:#005657;fill-opacity:1;stroke:#fefefe;stroke-width:0.75;stroke-linecap:butt;stroke-linejoin:miter;stroke-miterlimit:4;stroke-dasharray:none;stroke-opacity:1;font-family:Times New Roman;-inkscape-font-specification:Times New Roman Bold"><tspan
           x="1146.8765"
           y="960.50403"
           id="tspan4050">Aremberg</tspan></text>
      <path
         d="M 1695.937,1398.5206 L 1671.4558,1398.5206 L 1683.6964,1377.3193 L 1695.937,1398.5206 z"
         transform="matrix(0.2863756,-0.4268325,-1.2936936,-0.8679805,2598.6815,2899.1461)"
         id="path4322"
         style="opacity:1;fill:#000000;fill-opacity:1;stroke:#ffffff;stroke-width:0.83812821;stroke-linecap:round;stroke-linejoin:miter;stroke-miterlimit:4;stroke-dasharray:none;stroke-dashoffset:0;stroke-opacity:1;display:inline" />
    </g>
    <g
       id="g4438">
      <text
         x="1504.8531"
         y="1036.152"
         id="text4072"
         xml:space="preserve"
         style="font-size:28px;font-style:normal;font-variant:normal;font-weight:bold;font-stretch:normal;text-align:start;line-height:125%;writing-mode:lr-tb;text-anchor:start;fill:#005657;fill-opacity:1;stroke:#fefefe;stroke-width:0.75;stroke-linecap:butt;stroke-linejoin:miter;stroke-miterlimit:4;stroke-dasharray:none;stroke-opacity:1;font-family:Times New Roman;-inkscape-font-specification:Times New Roman Bold"><tspan
           x="1504.8531"
           y="1036.152"
           id="tspan4074">Fuchsrhre</tspan></text>
      <path
         d="M 1695.937,1398.5206 L 1671.4558,1398.5206 L 1683.6964,1377.3193 L 1695.937,1398.5206 z"
         transform="matrix(-0.3609058,0.3659836,1.1092655,1.0938753,586.65622,-1141.7655)"
         id="path4324"
         style="opacity:1;fill:#000000;fill-opacity:1;stroke:#ffffff;stroke-width:0.83812821;stroke-linecap:round;stroke-linejoin:miter;stroke-miterlimit:4;stroke-dasharray:none;stroke-dashoffset:0;stroke-opacity:1;display:inline" />
    </g>
    <g
       id="g4443">
      <text
         x="1379.2238"
         y="886.20691"
         id="text4076"
         xml:space="preserve"
         style="font-size:28px;font-style:normal;font-variant:normal;font-weight:bold;font-stretch:normal;text-align:start;line-height:125%;writing-mode:lr-tb;text-anchor:start;fill:#005657;fill-opacity:1;stroke:#fefefe;stroke-width:0.75;stroke-linecap:butt;stroke-linejoin:miter;stroke-miterlimit:4;stroke-dasharray:none;stroke-opacity:1;font-family:Times New Roman;-inkscape-font-specification:Times New Roman Bold"><tspan
           x="1379.2238"
           y="886.20691"
           id="tspan4078">Adenauer Forst</tspan></text>
      <path
         d="M 1695.937,1398.5206 L 1671.4558,1398.5206 L 1683.6964,1377.3193 L 1695.937,1398.5206 z"
         transform="matrix(0.3908588,-0.3338059,-1.0117376,-1.1846603,2300.437,3112.1791)"
         id="path4326"
         style="opacity:1;fill:#000000;fill-opacity:1;stroke:#ffffff;stroke-width:0.83812821;stroke-linecap:round;stroke-linejoin:miter;stroke-miterlimit:4;stroke-dasharray:none;stroke-dashoffset:0;stroke-opacity:1;display:inline" />
    </g>
    <g
       id="g4448">
      <text
         x="1489.9939"
         y="817.31329"
         id="text4080"
         xml:space="preserve"
         style="font-size:28px;font-style:normal;font-variant:normal;font-weight:bold;font-stretch:normal;text-align:start;line-height:125%;writing-mode:lr-tb;text-anchor:start;fill:#005657;fill-opacity:1;stroke:#fefefe;stroke-width:0.75;stroke-linecap:butt;stroke-linejoin:miter;stroke-miterlimit:4;stroke-dasharray:none;stroke-opacity:1;font-family:Times New Roman;-inkscape-font-specification:Times New Roman Bold"><tspan
           x="1489.9939"
           y="817.31329"
           id="tspan4082">Metzgesfeld</tspan></text>
      <path
         d="M 1695.937,1398.5206 L 1671.4558,1398.5206 L 1683.6964,1377.3193 L 1695.937,1398.5206 z"
         transform="matrix(0.1343175,-0.4961409,-1.5037615,-0.407105,3520.7868,2226.9378)"
         id="path4328"
         style="opacity:1;fill:#000000;fill-opacity:1;stroke:#ffffff;stroke-width:0.83812821;stroke-linecap:round;stroke-linejoin:miter;stroke-miterlimit:4;stroke-dasharray:none;stroke-dashoffset:0;stroke-opacity:1;display:inline" />
    </g>
    <g
       id="g4453">
      <text
         x="1483.2396"
         y="751.12134"
         id="text4084"
         xml:space="preserve"
         style="font-size:28px;font-style:normal;font-variant:normal;font-weight:bold;font-stretch:normal;text-align:start;line-height:125%;writing-mode:lr-tb;text-anchor:start;fill:#005657;fill-opacity:1;stroke:#fefefe;stroke-width:0.75;stroke-linecap:butt;stroke-linejoin:miter;stroke-miterlimit:4;stroke-dasharray:none;stroke-opacity:1;font-family:Times New Roman;-inkscape-font-specification:Times New Roman Bold"><tspan
           x="1483.2396"
           y="751.12134"
           id="tspan4086">Kallenhard</tspan></text>
      <path
         d="M 1695.937,1398.5206 L 1671.4558,1398.5206 L 1683.6964,1377.3193 L 1695.937,1398.5206 z"
         transform="matrix(6.1819056e-2,-0.5102699,-1.5465853,-0.1873684,3680.9261,1868.8276)"
         id="path4330"
         style="opacity:1;fill:#000000;fill-opacity:1;stroke:#ffffff;stroke-width:0.83812821;stroke-linecap:round;stroke-linejoin:miter;stroke-miterlimit:4;stroke-dasharray:none;stroke-dashoffset:0;stroke-opacity:1;display:inline" />
    </g>
    <g
       id="g4458">
      <text
         x="1731.797"
         y="874.04926"
         id="text4088"
         xml:space="preserve"
         style="font-size:28px;font-style:normal;font-variant:normal;font-weight:bold;font-stretch:normal;text-align:start;line-height:125%;writing-mode:lr-tb;text-anchor:start;fill:#005657;fill-opacity:1;stroke:#fefefe;stroke-width:0.75;stroke-linecap:butt;stroke-linejoin:miter;stroke-miterlimit:4;stroke-dasharray:none;stroke-opacity:1;font-family:Times New Roman;-inkscape-font-specification:Times New Roman Bold"><tspan
           x="1731.797"
           y="874.04926"
           id="tspan4090">Wehrseifen</tspan></text>
      <path
         d="M 1695.937,1398.5206 L 1671.4558,1398.5206 L 1683.6964,1377.3193 L 1695.937,1398.5206 z"
         transform="matrix(-0.3844658,-0.3411496,-1.0339959,1.1652835,3913.7128,-212.13141)"
         id="path4332"
         style="opacity:1;fill:#000000;fill-opacity:1;stroke:#ffffff;stroke-width:0.83812821;stroke-linecap:round;stroke-linejoin:miter;stroke-miterlimit:4;stroke-dasharray:none;stroke-dashoffset:0;stroke-opacity:1;display:inline" />
    </g>
    <g
       id="g4463">
      <text
         x="1870.9352"
         y="938.89032"
         id="text4092"
         xml:space="preserve"
         style="font-size:28px;font-style:normal;font-variant:normal;font-weight:bold;font-stretch:normal;text-align:start;line-height:125%;writing-mode:lr-tb;text-anchor:start;fill:#005657;fill-opacity:1;stroke:#fefefe;stroke-width:0.75;stroke-linecap:butt;stroke-linejoin:miter;stroke-miterlimit:4;stroke-dasharray:none;stroke-opacity:1;font-family:Times New Roman;-inkscape-font-specification:Times New Roman Bold"><tspan
           x="1870.9352"
           y="938.89032"
           id="tspan4094">Breidscheid</tspan></text>
      <path
         d="M 1695.937,1398.5206 L 1671.4558,1398.5206 L 1683.6964,1377.3193 L 1695.937,1398.5206 z"
         transform="matrix(-0.4720645,-0.2033521,-0.6163433,1.4307879,3605.3665,-744.71579)"
         id="path4334"
         style="opacity:1;fill:#000000;fill-opacity:1;stroke:#ffffff;stroke-width:0.83812821;stroke-linecap:round;stroke-linejoin:miter;stroke-miterlimit:4;stroke-dasharray:none;stroke-dashoffset:0;stroke-opacity:1;display:inline" />
    </g>
    <g
       id="g4468">
      <text
         x="2209.9998"
         y="849.73383"
         id="text4096"
         xml:space="preserve"
         style="font-size:28px;font-style:normal;font-variant:normal;font-weight:bold;font-stretch:normal;text-align:start;line-height:125%;writing-mode:lr-tb;text-anchor:start;fill:#005657;fill-opacity:1;stroke:#fefefe;stroke-width:0.75;stroke-linecap:butt;stroke-linejoin:miter;stroke-miterlimit:4;stroke-dasharray:none;stroke-opacity:1;font-family:Times New Roman;-inkscape-font-specification:Times New Roman Bold"><tspan
           x="2209.9998"
           y="849.73383"
           id="tspan4098">Bergwerk</tspan></text>
      <path
         d="M 1695.937,1398.5206 L 1671.4558,1398.5206 L 1683.6964,1377.3193 L 1695.937,1398.5206 z"
         transform="matrix(0.320341,0.4019685,1.2183327,-0.9709266,17.329122,1553.4996)"
         id="path4336"
         style="opacity:1;fill:#000000;fill-opacity:1;stroke:#ffffff;stroke-width:0.83812821;stroke-linecap:round;stroke-linejoin:miter;stroke-miterlimit:4;stroke-dasharray:none;stroke-dashoffset:0;stroke-opacity:1;display:inline" />
    </g>
    <g
       id="g4473">
      <text
         x="2276.1919"
         y="1111.7998"
         id="text4100"
         xml:space="preserve"
         style="font-size:28px;font-style:normal;font-variant:normal;font-weight:bold;font-stretch:normal;text-align:start;line-height:125%;writing-mode:lr-tb;text-anchor:start;fill:#005657;fill-opacity:1;stroke:#fefefe;stroke-width:0.75;stroke-linecap:butt;stroke-linejoin:miter;stroke-miterlimit:4;stroke-dasharray:none;stroke-opacity:1;font-family:Times New Roman;-inkscape-font-specification:Times New Roman Bold"><tspan
           x="2276.1919"
           y="1111.7998"
           id="tspan4102">Kesselchen</tspan></text>
      <path
         d="M 1695.937,1398.5206 L 1671.4558,1398.5206 L 1683.6964,1377.3193 L 1695.937,1398.5206 z"
         transform="matrix(0.2563782,0.4454966,1.3502628,-0.7770609,-34.035616,1462.4825)"
         id="path4338"
         style="opacity:1;fill:#000000;fill-opacity:1;stroke:#ffffff;stroke-width:0.83812821;stroke-linecap:round;stroke-linejoin:miter;stroke-miterlimit:4;stroke-dasharray:none;stroke-dashoffset:0;stroke-opacity:1;display:inline" />
    </g>
    <g
       id="g4478">
      <text
         x="2343.7346"
         y="1191.5002"
         id="text4104"
         xml:space="preserve"
         style="font-size:28px;font-style:normal;font-variant:normal;font-weight:bold;font-stretch:normal;text-align:start;line-height:125%;writing-mode:lr-tb;text-anchor:start;fill:#005657;fill-opacity:1;stroke:#fefefe;stroke-width:0.75;stroke-linecap:butt;stroke-linejoin:miter;stroke-miterlimit:4;stroke-dasharray:none;stroke-opacity:1;font-family:Times New Roman;-inkscape-font-specification:Times New Roman Bold"><tspan
           x="2343.7346"
           y="1191.5002"
           id="tspan4106">Klostertal</tspan></text>
      <path
         d="M 1695.937,1398.5206 L 1671.4558,1398.5206 L 1683.6964,1377.3193 L 1695.937,1398.5206 z"
         transform="matrix(0.513357,2.5722313e-2,7.7962246e-2,-1.5559418,1417.5063,3328.6078)"
         id="path4340"
         style="opacity:1;fill:#000000;fill-opacity:1;stroke:#ffffff;stroke-width:0.83812821;stroke-linecap:round;stroke-linejoin:miter;stroke-miterlimit:4;stroke-dasharray:none;stroke-dashoffset:0;stroke-opacity:1;display:inline" />
    </g>
    <g
       id="g4488">
      <g
         transform="translate(-5.4034228,-24.315402)"
         id="g4120"
         style="font-size:28px;font-style:normal;font-variant:normal;font-weight:bold;font-stretch:normal;text-align:start;line-height:125%;writing-mode:lr-tb;text-anchor:start;fill:#005657;fill-opacity:1;stroke:#fefefe;stroke-width:0.75;stroke-miterlimit:4;stroke-dasharray:none;stroke-opacity:1;font-family:Times New Roman;-inkscape-font-specification:Times New Roman Bold">
        <text
           x="2220.8066"
           y="1309.0247"
           id="text4108"
           xml:space="preserve"
           style="font-size:28px;font-style:normal;font-variant:normal;font-weight:bold;font-stretch:normal;text-align:start;line-height:125%;writing-mode:lr-tb;text-anchor:start;fill:#005657;fill-opacity:1;stroke:#fefefe;stroke-width:0.75;stroke-linecap:butt;stroke-linejoin:miter;stroke-miterlimit:4;stroke-dasharray:none;stroke-opacity:1;font-family:Times New Roman;-inkscape-font-specification:Times New Roman Bold"><tspan
             x="2220.8066"
             y="1309.0247"
             id="tspan4110">Karussell</tspan></text>
        <text
           x="2246.4729"
           y="1337.4645"
           id="text4112"
           xml:space="preserve"
           style="font-size:28px;font-style:normal;font-variant:normal;font-weight:bold;font-stretch:normal;text-align:start;line-height:125%;writing-mode:lr-tb;text-anchor:start;fill:#005657;fill-opacity:1;stroke:#fefefe;stroke-width:0.75;stroke-linecap:butt;stroke-linejoin:miter;stroke-miterlimit:4;stroke-dasharray:none;stroke-opacity:1;font-family:Times New Roman;-inkscape-font-specification:Times New Roman Bold"><tspan
             x="2246.4729"
             y="1337.4645"
             id="tspan4114">aka</tspan></text>
        <text
           x="2184.3337"
           y="1365.7607"
           id="text4116"
           xml:space="preserve"
           style="font-size:28px;font-style:normal;font-variant:normal;font-weight:bold;font-stretch:normal;text-align:start;line-height:125%;writing-mode:lr-tb;text-anchor:start;fill:#005657;fill-opacity:1;stroke:#fefefe;stroke-width:0.75;stroke-linecap:butt;stroke-linejoin:miter;stroke-miterlimit:4;stroke-dasharray:none;stroke-opacity:1;font-family:Times New Roman;-inkscape-font-specification:Times New Roman Bold"><tspan
             x="2184.3337"
             y="1365.7607"
             id="tspan4118">Caracciota-Karussell</tspan></text>
      </g>
      <path
         d="M 1695.937,1398.5206 L 1671.4558,1398.5206 L 1683.6964,1377.3193 L 1695.937,1398.5206 z"
         transform="matrix(-5.64714e-2,-0.5108894,-1.5484629,0.17116,4575.2805,1919.2313)"
         id="path4342"
         style="opacity:1;fill:#000000;fill-opacity:1;stroke:#ffffff;stroke-width:0.83812821;stroke-linecap:round;stroke-linejoin:miter;stroke-miterlimit:4;stroke-dasharray:none;stroke-dashoffset:0;stroke-opacity:1;display:inline" />
    </g>
    <g
       id="g4483">
      <text
         x="2486.9255"
         y="1219.8683"
         id="text4128"
         xml:space="preserve"
         style="font-size:28px;font-style:normal;font-variant:normal;font-weight:bold;font-stretch:normal;text-align:start;line-height:125%;writing-mode:lr-tb;text-anchor:start;fill:#005657;fill-opacity:1;stroke:#fefefe;stroke-width:0.75;stroke-linecap:butt;stroke-linejoin:miter;stroke-miterlimit:4;stroke-dasharray:none;stroke-opacity:1;font-family:Times New Roman;-inkscape-font-specification:Times New Roman Bold"><tspan
           x="2486.9255"
           y="1219.8683"
           id="tspan4130">Hohe Acht</tspan></text>
      <path
         d="M 1695.937,1398.5206 L 1671.4558,1398.5206 L 1683.6964,1377.3193 L 1695.937,1398.5206 z"
         transform="matrix(0.5106568,-5.8537016e-2,-0.1774207,-1.5477581,1936.4699,3491.4463)"
         id="path4344"
         style="opacity:1;fill:#000000;fill-opacity:1;stroke:#ffffff;stroke-width:0.83812821;stroke-linecap:round;stroke-linejoin:miter;stroke-miterlimit:4;stroke-dasharray:none;stroke-dashoffset:0;stroke-opacity:1;display:inline" />
    </g>
    <g
       id="g4498">
      <text
         x="2425.9866"
         y="1394.1287"
         id="text4132"
         xml:space="preserve"
         style="font-size:28px;font-style:normal;font-variant:normal;font-weight:bold;font-stretch:normal;text-align:start;line-height:125%;writing-mode:lr-tb;text-anchor:start;fill:#005657;fill-opacity:1;stroke:#fefefe;stroke-width:0.75;stroke-linecap:butt;stroke-linejoin:miter;stroke-miterlimit:4;stroke-dasharray:none;stroke-opacity:1;font-family:Times New Roman;-inkscape-font-specification:Times New Roman Bold"><tspan
           x="2425.9866"
           y="1394.1287"
           id="tspan4134">Wipperman</tspan></text>
      <path
         d="M 1695.937,1398.5206 L 1671.4558,1398.5206 L 1683.6964,1377.3193 L 1695.937,1398.5206 z"
         transform="matrix(-5.64714e-2,-0.5108894,-1.5484629,0.17116,4838.2118,2006.8354)"
         id="path4346"
         style="opacity:1;fill:#000000;fill-opacity:1;stroke:#ffffff;stroke-width:0.83812821;stroke-linecap:round;stroke-linejoin:miter;stroke-miterlimit:4;stroke-dasharray:none;stroke-dashoffset:0;stroke-opacity:1;display:inline" />
    </g>
    <g
       id="g4503">
      <text
         x="2632.8176"
         y="1449.5138"
         id="text4348"
         xml:space="preserve"
         style="font-size:28px;font-style:normal;font-variant:normal;font-weight:bold;font-stretch:normal;text-align:start;line-height:125%;writing-mode:lr-tb;text-anchor:start;fill:#005657;fill-opacity:1;stroke:#fefefe;stroke-width:0.75;stroke-linecap:butt;stroke-linejoin:miter;stroke-miterlimit:4;stroke-dasharray:none;stroke-opacity:1;font-family:Times New Roman;-inkscape-font-specification:Times New Roman Bold"><tspan
           x="2632.8176"
           y="1449.5138"
           id="tspan4350">Eschbach</tspan></text>
      <path
         d="M 1695.937,1398.5206 L 1671.4558,1398.5206 L 1683.6964,1377.3193 L 1695.937,1398.5206 z"
         transform="matrix(0.1129857,0.5014292,1.5197898,-0.3424501,310.65599,1078.5432)"
         id="path4352"
         style="opacity:1;fill:#000000;fill-opacity:1;stroke:#ffffff;stroke-width:0.83812821;stroke-linecap:round;stroke-linejoin:miter;stroke-miterlimit:4;stroke-dasharray:none;stroke-dashoffset:0;stroke-opacity:1;display:inline" />
    </g>
    <g
       id="g4513">
      <path
         d="M 1695.937,1398.5206 L 1671.4558,1398.5206 L 1683.6964,1377.3193 L 1695.937,1398.5206 z"
         transform="matrix(-0.5121235,4.3891728e-2,0.1330321,1.5522035,3206.4945,-708.66479)"
         id="path4354"
         style="opacity:1;fill:#000000;fill-opacity:1;stroke:#ffffff;stroke-width:0.83812821;stroke-linecap:round;stroke-linejoin:miter;stroke-miterlimit:4;stroke-dasharray:none;stroke-dashoffset:0;stroke-opacity:1;display:inline" />
      <text
         x="2490.9778"
         y="1565.6873"
         id="text4356"
         xml:space="preserve"
         style="font-size:28px;font-style:normal;font-variant:normal;font-weight:bold;font-stretch:normal;text-align:start;line-height:125%;writing-mode:lr-tb;text-anchor:start;fill:#005657;fill-opacity:1;stroke:#fefefe;stroke-width:0.75;stroke-linecap:butt;stroke-linejoin:miter;stroke-miterlimit:4;stroke-dasharray:none;stroke-opacity:1;font-family:Times New Roman;-inkscape-font-specification:Times New Roman Bold"><tspan
           x="2490.9778"
           y="1565.6873"
           id="tspan4358">Eiskurve</tspan></text>
    </g>
    <g
       id="g4508">
      <text
         x="2639.572"
         y="1534.6176"
         id="text4136"
         xml:space="preserve"
         style="font-size:28px;font-style:normal;font-variant:normal;font-weight:bold;font-stretch:normal;text-align:start;line-height:125%;writing-mode:lr-tb;text-anchor:start;fill:#005657;fill-opacity:1;stroke:#fefefe;stroke-width:0.75;stroke-linecap:butt;stroke-linejoin:miter;stroke-miterlimit:4;stroke-dasharray:none;stroke-opacity:1;font-family:Times New Roman;-inkscape-font-specification:Times New Roman Bold"><tspan
           x="2639.572"
           y="1534.6176"
           id="tspan4138">Brnnchen</tspan></text>
      <path
         d="M 1695.937,1398.5206 L 1671.4558,1398.5206 L 1683.6964,1377.3193 L 1695.937,1398.5206 z"
         transform="matrix(-0.1018487,0.5038093,1.5270038,0.3086948,665.67152,238.12275)"
         id="path4360"
         style="opacity:1;fill:#000000;fill-opacity:1;stroke:#ffffff;stroke-width:0.83812821;stroke-linecap:round;stroke-linejoin:miter;stroke-miterlimit:4;stroke-dasharray:none;stroke-dashoffset:0;stroke-opacity:1;display:inline" />
    </g>
    <g
       id="g4518">
      <text
         x="2284.3469"
         y="1508.1761"
         id="text4140"
         xml:space="preserve"
         style="font-size:28px;font-style:normal;font-variant:normal;font-weight:bold;font-stretch:normal;text-align:start;line-height:125%;writing-mode:lr-tb;text-anchor:start;fill:#005657;fill-opacity:1;stroke:#fefefe;stroke-width:0.75;stroke-linecap:butt;stroke-linejoin:miter;stroke-miterlimit:4;stroke-dasharray:none;stroke-opacity:1;font-family:Times New Roman;-inkscape-font-specification:Times New Roman Bold"><tspan
           x="2284.3469"
           y="1508.1761"
           id="tspan4142">Pflanzgarten I</tspan></text>
      <path
         d="M 1695.937,1398.5206 L 1671.4558,1398.5206 L 1683.6964,1377.3193 L 1695.937,1398.5206 z"
         transform="matrix(0.4630129,-0.2231951,-0.6764854,-1.4033533,2583.607,3862.7865)"
         id="path4362"
         style="opacity:1;fill:#000000;fill-opacity:1;stroke:#ffffff;stroke-width:0.83812821;stroke-linecap:round;stroke-linejoin:miter;stroke-miterlimit:4;stroke-dasharray:none;stroke-dashoffset:0;stroke-opacity:1;display:inline" />
    </g>
    <g
       id="g4523">
      <text
         x="2297.2798"
         y="1672.455"
         id="text4160"
         xml:space="preserve"
         style="font-size:28px;font-style:normal;font-variant:normal;font-weight:bold;font-stretch:normal;text-align:start;line-height:125%;writing-mode:lr-tb;text-anchor:start;fill:#005657;fill-opacity:1;stroke:#fefefe;stroke-width:0.75;stroke-linecap:butt;stroke-linejoin:miter;stroke-miterlimit:4;stroke-dasharray:none;stroke-opacity:1;font-family:Times New Roman;-inkscape-font-specification:Times New Roman Bold"><tspan
           x="2297.2798"
           y="1672.455"
           id="tspan4162">Pflanzgarten II</tspan></text>
      <path
         d="M 1695.937,1398.5206 L 1671.4558,1398.5206 L 1683.6964,1377.3193 L 1695.937,1398.5206 z"
         transform="matrix(-0.5009818,0.1149532,0.3484135,1.5184338,2658.1255,-673.06473)"
         id="path4364"
         style="opacity:1;fill:#000000;fill-opacity:1;stroke:#ffffff;stroke-width:0.83812821;stroke-linecap:round;stroke-linejoin:miter;stroke-miterlimit:4;stroke-dasharray:none;stroke-dashoffset:0;stroke-opacity:1;display:inline" />
    </g>
    <g
       id="g4528">
      <text
         x="1989.8104"
         y="1480.5834"
         id="text4144"
         xml:space="preserve"
         style="font-size:28px;font-style:normal;font-variant:normal;font-weight:bold;font-stretch:normal;text-align:start;line-height:125%;writing-mode:lr-tb;text-anchor:start;fill:#005657;fill-opacity:1;stroke:#fefefe;stroke-width:0.75;stroke-linecap:butt;stroke-linejoin:miter;stroke-miterlimit:4;stroke-dasharray:none;stroke-opacity:1;font-family:Times New Roman;-inkscape-font-specification:Times New Roman Bold"><tspan
           x="1989.8104"
           y="1480.5834"
           id="tspan4146">Schwalbenschwanz</tspan></text>
      <path
         d="M 1695.937,1398.5206 L 1671.4558,1398.5206 L 1683.6964,1377.3193 L 1695.937,1398.5206 z"
         transform="matrix(0.479628,-0.184808,-0.5601374,-1.4537122,2091.5166,3834.2956)"
         id="path4366"
         style="opacity:1;fill:#000000;fill-opacity:1;stroke:#ffffff;stroke-width:0.83812821;stroke-linecap:round;stroke-linejoin:miter;stroke-miterlimit:4;stroke-dasharray:none;stroke-dashoffset:0;stroke-opacity:1;display:inline" />
    </g>
    <g
       id="g4533">
      <text
         x="2139.5803"
         y="1690.3914"
         id="text4148"
         xml:space="preserve"
         style="font-size:28px;font-style:normal;font-variant:normal;font-weight:bold;font-stretch:normal;text-align:start;line-height:125%;writing-mode:lr-tb;text-anchor:start;fill:#005657;fill-opacity:1;stroke:#fefefe;stroke-width:0.75;stroke-linecap:butt;stroke-linejoin:miter;stroke-miterlimit:4;stroke-dasharray:none;stroke-opacity:1;font-family:Times New Roman;-inkscape-font-specification:Times New Roman Bold"><tspan
           x="2139.5803"
           y="1690.3914"
           id="tspan4150">Galgenkopf</tspan></text>
      <path
         d="M 1695.937,1398.5206 L 1671.4558,1398.5206 L 1683.6964,1377.3193 L 1695.937,1398.5206 z"
         transform="matrix(-0.2685665,0.4382568,1.3283197,0.8140025,764.57642,-216.94623)"
         id="path4368"
         style="opacity:1;fill:#000000;fill-opacity:1;stroke:#ffffff;stroke-width:0.83812821;stroke-linecap:round;stroke-linejoin:miter;stroke-miterlimit:4;stroke-dasharray:none;stroke-dashoffset:0;stroke-opacity:1;display:inline" />
    </g>
    <g
       id="g4538">
      <text
         x="2027.6344"
         y="1733.1935"
         id="text4152"
         xml:space="preserve"
         style="font-size:28px;font-style:normal;font-variant:normal;font-weight:bold;font-stretch:normal;text-align:start;line-height:125%;writing-mode:lr-tb;text-anchor:start;fill:#005657;fill-opacity:1;stroke:#fefefe;stroke-width:0.75;stroke-linecap:butt;stroke-linejoin:miter;stroke-miterlimit:4;stroke-dasharray:none;stroke-opacity:1;font-family:Times New Roman;-inkscape-font-specification:Times New Roman Bold"><tspan
           x="2027.6344"
           y="1733.1935"
           id="tspan4154">Dttinger Hhe</tspan></text>
      <path
         d="M 1695.937,1398.5206 L 1671.4558,1398.5206 L 1683.6964,1377.3193 L 1695.937,1398.5206 z"
         transform="matrix(-0.4905375,0.1535251,0.4653217,1.486778,2243.001,-637.51788)"
         id="path4370"
         style="opacity:1;fill:#000000;fill-opacity:1;stroke:#ffffff;stroke-width:0.83812821;stroke-linecap:round;stroke-linejoin:miter;stroke-miterlimit:4;stroke-dasharray:none;stroke-dashoffset:0;stroke-opacity:1;display:inline" />
    </g>
    <g
       id="g4543">
      <text
         x="1604.4163"
         y="1711.5548"
         id="text4156"
         xml:space="preserve"
         style="font-size:28px;font-style:normal;font-variant:normal;font-weight:bold;font-stretch:normal;text-align:start;line-height:125%;writing-mode:lr-tb;text-anchor:start;fill:#005657;fill-opacity:1;stroke:#fefefe;stroke-width:0.75;stroke-linecap:butt;stroke-linejoin:miter;stroke-miterlimit:4;stroke-dasharray:none;stroke-opacity:1;font-family:Times New Roman;-inkscape-font-specification:Times New Roman Bold"><tspan
           x="1604.4163"
           y="1711.5548"
           id="tspan4158">Antoniusbuche</tspan></text>
      <path
         d="M 1695.937,1398.5206 L 1671.4558,1398.5206 L 1683.6964,1377.3193 L 1695.937,1398.5206 z"
         transform="matrix(-0.5015475,0.1124594,0.3408549,1.5201484,1994.4463,-634.7067)"
         id="path4372"
         style="opacity:1;fill:#000000;fill-opacity:1;stroke:#ffffff;stroke-width:0.83812821;stroke-linecap:round;stroke-linejoin:miter;stroke-miterlimit:4;stroke-dasharray:none;stroke-dashoffset:0;stroke-opacity:1;display:inline" />
    </g>
    <g
       id="g4548">
      <text
         x="1558.8875"
         y="1749.4037"
         id="text4164"
         xml:space="preserve"
         style="font-size:28px;font-style:normal;font-variant:normal;font-weight:bold;font-stretch:normal;text-align:start;line-height:125%;writing-mode:lr-tb;text-anchor:start;fill:#005657;fill-opacity:1;stroke:#fefefe;stroke-width:0.75;stroke-linecap:butt;stroke-linejoin:miter;stroke-miterlimit:4;stroke-dasharray:none;stroke-opacity:1;font-family:Times New Roman;-inkscape-font-specification:Times New Roman Bold"><tspan
           x="1558.8875"
           y="1749.4037"
           id="tspan4166">Tiergarten</tspan></text>
      <path
         d="M 1695.937,1398.5206 L 1671.4558,1398.5206 L 1683.6964,1377.3193 L 1695.937,1398.5206 z"
         transform="matrix(-0.5026444,0.1074503,0.3256729,1.5234731,1949.5144,-598.59877)"
         id="path4374"
         style="opacity:1;fill:#000000;fill-opacity:1;stroke:#ffffff;stroke-width:0.83812821;stroke-linecap:round;stroke-linejoin:miter;stroke-miterlimit:4;stroke-dasharray:none;stroke-dashoffset:0;stroke-opacity:1;display:inline" />
    </g>
    <g
       id="g4553">
      <text
         x="1450.819"
         y="1788.5785"
         id="text4168"
         xml:space="preserve"
         style="font-size:28px;font-style:normal;font-variant:normal;font-weight:bold;font-stretch:normal;text-align:start;line-height:125%;writing-mode:lr-tb;text-anchor:start;fill:#005657;fill-opacity:1;stroke:#fefefe;stroke-width:0.75;stroke-linecap:butt;stroke-linejoin:miter;stroke-miterlimit:4;stroke-dasharray:none;stroke-opacity:1;font-family:Times New Roman;-inkscape-font-specification:Times New Roman Bold"><tspan
           x="1450.819"
           y="1788.5785"
           id="tspan4170">Hohenrain-Schikane</tspan></text>
      <path
         d="M 1695.937,1398.5206 L 1671.4558,1398.5206 L 1683.6964,1377.3193 L 1695.937,1398.5206 z"
         transform="matrix(-0.4973158,0.1298999,0.3937156,1.5073225,1760.7948,-596.01214)"
         id="path4376"
         style="opacity:1;fill:#000000;fill-opacity:1;stroke:#ffffff;stroke-width:0.83812821;stroke-linecap:round;stroke-linejoin:miter;stroke-miterlimit:4;stroke-dasharray:none;stroke-dashoffset:0;stroke-opacity:1;display:inline" />
    </g>
    <text
       x="992.92365"
       y="1565.1418"
       id="text4661"
       xml:space="preserve"
       style="font-size:28px;font-style:normal;font-variant:normal;font-weight:bold;font-stretch:normal;text-align:start;line-height:125%;writing-mode:lr-tb;text-anchor:start;fill:#000000;fill-opacity:1;stroke:#fefefe;stroke-width:0.75;stroke-linecap:butt;stroke-linejoin:miter;stroke-miterlimit:4;stroke-dasharray:none;stroke-opacity:1;font-family:Times New Roman;-inkscape-font-specification:Times New Roman Bold"><tspan
         x="992.92365"
         y="1565.1418"
         id="tspan4663"><tspan
           x="992.92365"
           y="1565.1418"
           id="tspan4665">Some configurations </tspan></tspan><tspan
         x="992.92365"
         y="1600.1418"
         id="tspan4667"><tspan
           x="992.92365"
           y="1600.1418"
           id="tspan4669">use the part or all of </tspan></tspan><tspan
         x="992.92365"
         y="1635.1418"
         id="tspan4671"><tspan
           x="992.92365"
           y="1635.1418"
           id="tspan4673">the GP track as </tspan></tspan><tspan
         x="992.92365"
         y="1670.1418"
         id="tspan4675"><tspan
           x="992.92365"
           y="1670.1418"
           id="tspan4677">shown below</tspan></tspan></text>
    <text
       x="2443.5537"
       y="801.26208"
       id="text4679"
       xml:space="preserve"
       style="font-size:28px;font-style:normal;font-variant:normal;font-weight:bold;font-stretch:normal;text-align:start;line-height:125%;writing-mode:lr-tb;text-anchor:start;fill:#005657;fill-opacity:0.91764706;stroke:#fefefe;stroke-width:0.75;stroke-linecap:butt;stroke-linejoin:miter;stroke-miterlimit:4;stroke-dasharray:none;stroke-opacity:1;font-family:Times New Roman;-inkscape-font-specification:Times New Roman Bold"><tspan
         x="2443.5537"
         y="801.26208"
         id="tspan4681"><tspan
           x="2443.5537"
           y="801.26208"
           id="tspan4683">Names in dark cyan are </tspan></tspan><tspan
         x="2443.5537"
         y="836.26208"
         id="tspan4685"><tspan
           x="2443.5537"
           y="836.26208"
           id="tspan4687">named sections of the </tspan></tspan><tspan
         x="2443.5537"
         y="871.26208"
         id="tspan4689"><tspan
           x="2443.5537"
           y="871.26208"
           id="tspan4691">track.  Some are turns </tspan></tspan><tspan
         x="2443.5537"
         y="906.26208"
         id="tspan4693"><tspan
           x="2443.5537"
           y="906.26208"
           id="tspan4695">or series of turns.  </tspan></tspan><tspan
         x="2443.5537"
         y="941.26208"
         id="tspan4697"><tspan
           x="2443.5537"
           y="941.26208"
           id="tspan4699">Others are straights.</tspan></tspan></text>
  </g>
</svg>
